<?xml version="1.0" encoding="UTF-8"?>
<!DOCTYPE svg PUBLIC "-//W3C//DTD SVG 1.1//EN" "http://www.w3.org/Graphics/SVG/1.1/DTD/svg11.dtd">
<!-- Creator: CorelDRAW 2019 (64-Bit) -->
<svg xmlns="http://www.w3.org/2000/svg" xml:space="preserve" width="181.068mm" height="180.184mm" version="1.1" style="shape-rendering:geometricPrecision; text-rendering:geometricPrecision; image-rendering:optimizeQuality; fill-rule:evenodd; clip-rule:evenodd"
viewBox="0 0 2468.76 2456.71"
 xmlns:xlink="http://www.w3.org/1999/xlink">
 <defs>
  <style type="text/css">
   <![CDATA[
    .fil0 {fill:#010101}
    .fil2 {fill:#212121}
    .fil3 {fill:#454545}
    .fil4 {fill:#757578}
    .fil1 {fill:#AFAFAF}
   ]]>
  </style>
 </defs>
 <g id="Capa_x0020_1">
  <metadata id="CorelCorpID_0Corel-Layer"/>
  <g id="_2870226793728">
   <path class="fil0" d="M1445.12 382.17l3.27 10.52 4.74 8.42c59.76,123.32 93.83,371.91 36.62,512.8 -3.63,14.41 -3.97,12.76 -5.31,28.5l793.47 2.15c5.97,37.21 2.27,115.72 1.89,156.91l0.1 793.64c-0.1,29.9 4.85,300.11 -7.2,305.88l-1.9 19.81c-15.12,36.84 -8.34,30.07 -45.2,45.2 -64.97,16.38 -244.63,7.5 -325.69,7.71l-1346.78 -0.11c-157.94,-1 -171.89,-1.51 -173.21,-162.04 -1.84,-224.45 0.13,-449.76 0.15,-674.31 -37.36,-18.21 -66.1,-31.54 -101.59,-56.31 -19.12,-13.35 -76.31,-57.81 -88.88,-61.57 -2.4,217.89 -1.56,439.54 0.28,657.51 0.86,101.41 -12.64,221.17 22.33,307.22 26.54,65.33 95.66,136.6 169.28,155.11l26.31 6.5c1.06,0.52 2.47,1.7 3.73,2.53 81.04,8.91 164.47,4.94 247.42,5.54 83.09,0.6 167.03,0.58 250.12,-0.04 168.25,-1.26 336.79,1.26 505.04,0 168.25,-1.26 336.79,1.26 505.04,0 155.62,-1.16 338.94,24.89 439.73,-58.48l24.32 -21.68c31.51,-28.74 36.83,-49.82 51.6,-73.77l7.17 -10.26c33.46,-59.44 26.24,-162.83 25.88,-240.52 -0.42,-89.74 0.55,-179.61 0.26,-269.36l-0.14 -1077.42c0.87,-99.64 -8.06,-146.72 -55.87,-214.04 -22.33,-31.44 -96.74,-105.01 -160.2,-102.43l-16.14 -4.49c-19.86,4.26 -107.89,-4.08 -142.75,-1.38 -0.08,28.83 6.35,197.14 -6.88,205.7 -5.01,90.97 -89.16,168.06 -186.22,168.84 -55.94,0.45 -98.67,-23.8 -128.08,-49.1 -20.03,-17.23 -63.16,-72.74 -59.32,-116.87 -8.6,-16.71 -5.41,-33.25 -5.24,-54.59l-1.73 -157.3 -261.01 0.24 0.57 5.33z"/>
   <path class="fil0" d="M590.33 4.88c-2.93,1.75 -0.89,2.47 -12.54,6.46 -20.36,6.99 3.4,-0.5 -8.22,1.91 -1.07,0.22 -14.27,1.45 -16.5,1.77 -46.05,3.06 -140.37,42.37 -176.06,61.46l-8.19 11.51 17.67 8.79 33.72 18.93c19.38,10.55 19.6,11.91 33.18,33.74l22.79 51.07c76.7,-24.43 68.19,-37.54 179.3,-50.87 186.13,-22.34 377.39,64.61 483.51,195.57 6.94,5.34 3.08,1.64 8.83,7.6l15.28 19.63c0.36,-0.81 1.45,2.19 2.15,3.3 39.3,75.99 71.39,93.99 96.83,223.71 93.07,474.65 -423.47,840.53 -844.28,584.48 -120.92,-73.58 -253.19,-246.47 -256.52,-381.97 -13.3,-15.45 -12.88,-55.8 -12.72,-75.97l16.58 -74.56c-1.79,-68.26 37.4,-146.5 70.29,-180.81l31.92 24.78c55.72,30.34 42.44,51.09 82.79,47.06 13.51,-21.01 6.14,-22.97 17.79,-36.51 -1.98,-37.26 12.15,-119.6 13.45,-169.25 1.63,-62.66 11.41,-145.55 -30.91,-151.87 -64.5,-9.63 -290.45,4.03 -337.55,24.49 -4.41,18.07 -6.95,26.15 2.82,41.47 35.65,17.42 28.48,24.23 46.18,38.53 8.24,6.66 13.03,9.84 22.14,16.34 17.06,12.16 13.04,6.3 19.38,20.57 -25.07,50.39 -84.62,175.54 -85.96,238.3 -0.83,12.4 -6.16,52.54 -14.74,64.8l-2.73 7.68 0 144.93c7,12.86 9.34,37.08 11.87,51.94 88.85,521.13 759.62,801.59 1195.14,382.73 167.86,-161.44 284.16,-450.54 169.5,-761.11 -77.46,-209.83 -256.34,-366.78 -463.93,-430.86 -21.67,-6.69 -90.31,-18.26 -103.2,-24.63l-194.96 0 -24.09 4.88z"/>
   <path class="fil0" d="M724.54 1067.95c1.03,-0.76 2.4,-1.77 3.08,-2.28l5.97 -4.5c12.68,-9.86 24.5,-22.93 26.57,-38.12 0.24,-1.76 1.14,-2.13 1.8,-3.14 -4.31,-36.15 4.26,-91.62 6.12,-129.89 1.87,-38.48 -1.71,-89.01 17.66,-118.66 28.94,-44.3 7.91,-74.67 31.52,-103.06 21.25,-25.56 38.44,-45.23 62.36,-72.48 22,-25.06 42.73,-46.84 62.6,-71.96 12.46,-15.76 150.27,-149.37 43.65,-148.47 -25.92,0.22 -64.13,41.75 -78.42,56.02l-174.1 162.51c-31.86,29.13 -100.54,-14.33 -129.51,72.33 -28.4,84.97 36.52,117.07 41.71,146.49 3.07,17.37 3.84,44.24 5.07,62.71 2.68,40.17 7.83,81.11 11.11,121.16 4.43,54.13 2.41,73.53 62.8,71.34z"/>
   <path class="fil0" d="M1873.2 188.86c-92.94,19.25 -70.61,140.61 -69.53,258.46 0.36,39.59 -5.01,125.06 7.02,156.76 14.02,36.94 57.6,63.68 111.91,53.04 95.51,-18.72 71.12,-155.35 70.55,-257.89 -0.6,-107.05 17.93,-238.92 -119.95,-210.36z"/>
   <polygon class="fil0" points="1805.55,1321.68 1992.84,1322.86 1991.87,1133.85 1804.74,1136.27 "/>
   <path class="fil0" d="M1044.88 1697.93l185.24 2.25 -0.07 -183.68 -181.22 0.88 -4.38 16.76c-0.53,6.06 -0.17,17.53 -0.18,24.12l0.61 139.66z"/>
   <polygon class="fil0" points="1991.47,2076.84 1992.26,1893.87 1809.88,1895.38 1807.95,2076.84 "/>
   <polygon class="fil0" points="1228.1,1896.39 1049.13,1895.3 1048.56,2080.07 1228.74,2079.95 "/>
   <path class="fil0" d="M1611.63 2073.1l0.5 -179.92 -179.09 2.33 -1.43 180.58c32.11,3.25 152.4,4.48 180.02,-2.99z"/>
   <polygon class="fil0" points="1991.71,1698.35 1991.95,1519.94 1807.94,1520.13 1808.17,1698.35 "/>
   <polygon class="fil0" points="1432.59,1321.72 1607.71,1322.81 1608.16,1138.16 1431.77,1138.9 "/>
   <polygon class="fil0" points="851.83,1698.35 851.19,1520.54 670.74,1520.98 670.97,1698.28 "/>
   <polygon class="fil0" points="851.36,2076.84 851.81,1897.24 672.62,1898.87 670.62,2075.64 "/>
   <polygon class="fil0" points="1431.47,1572.85 1431.23,1697.6 1608.02,1698.35 1608.16,1519.94 1431.97,1520.79 "/>
   <path class="fil1" d="M2272.71 2200.99c12.05,-5.77 7.1,-275.99 7.2,-305.88l-0.1 -793.64c0.39,-41.19 4.08,-119.71 -1.89,-156.91l-793.47 -2.15c1.35,-15.74 1.68,-14.09 5.31,-28.5 -5,5.83 -4.92,-0.48 -9.89,14.43 -5.08,15.25 -1.56,7.28 -1.32,20.92l793.95 2.35 0.21 1249.39z"/>
   <path class="fil2" d="M1431.97 1520.79l176.19 -0.85 -0.14 178.42 -176.79 -0.75 0.24 -124.76 0.5 -52.06zm-9.5 180.92l190.59 3.15 0.27 -191.92 -188.69 2.14 -2.17 186.63z"/>
   <path class="fil1" d="M1607.71 1322.81l-175.12 -1.09c-10.21,-4.55 -8.44,4.25 -7.92,-42.27l1.11 -142.26 186.76 -2.22 1.17 168.88c-1.11,19.18 -1.68,14.14 -5.99,18.96zm5.79 3.18c11.43,-20.5 11.97,-172.15 -0.2,-193.97 -17.36,-3.68 -118.54,-3.1 -141.47,-2.08 -62.41,2.78 -52.38,-9.24 -50.37,96.6 2.02,106.82 -20.35,98.37 45.56,101.61 23.09,1.14 129.54,1.87 146.49,-2.15z"/>
   <path class="fil1" d="M1804.74 1136.27l187.13 -2.42 0.97 189.01 -187.29 -1.18 -0.81 -185.42zm188.09 188.49c11.43,-16.29 4.48,-136.87 5.71,-165.8 0.2,-4.63 1.25,-10.86 0.52,-14.98 -4.15,-23.49 -37.21,-13.02 -99.14,-14.36 -13.4,-0.29 -92.24,-0.16 -96.63,4.79 -4,4.51 -4.19,184.64 -0.22,189.38 8.24,9.82 73.27,5.16 92.03,5.02 16.62,-0.12 31.56,-2.11 48.1,-2.07 21.81,0.06 33.72,5.2 49.62,-1.98z"/>
   <path class="fil1" d="M1433.04 1895.52l179.09 -2.33 -0.5 179.92c-8.3,11.36 -0.89,7.81 -19.19,9.65l-167.84 -1.09 0.72 -143.28c-0.58,-58.47 -5.73,-37.06 7.72,-42.88zm187.28 -5.19c-163.53,15.76 -203.75,-31.94 -199.79,28.58 1.71,26.18 -1.45,46.99 -1.27,72.41 0.84,114.5 -7.9,98.62 52.57,95.58 42.42,-2.13 108.46,-1.08 148.21,-0.96l0.26 -195.61z"/>
   <path class="fil1" d="M1809.88 1895.38l182.38 -1.52 -0.78 182.98 -0.08 6.18 -186.76 -2.07c16.53,15.75 73.32,5.15 95.29,5.61 28.5,0.6 69.58,6.86 91.47,-3.54 2.64,-3.45 3.21,-1.42 5.85,-10.1l2.24 -134.52c0.1,-16.02 1.2,-31.48 -7.22,-44.54 -24.83,-9.09 -66.06,-3.12 -97.15,-2.9 -28.5,0.2 -69.21,-8.99 -91.4,4.55l6.17 -0.13z"/>
   <path class="fil1" d="M1993.25 1513.17l-1.3 6.77 -0.24 178.42 1.17 5.78 -189.35 -2.09c16.84,14.52 66.38,5.21 96.39,5.82l89.55 -2.3c0.64,-1.38 2.28,-0.93 3.4,-1.42 12.35,-23.82 3.78,-115.11 5.65,-145.71 2.71,-44.25 -2.17,-33.91 -3.05,-41.73 -0.24,-2.12 -1.48,-2.35 -2.23,-3.52 -12.02,-4.28 -166.78,-6.05 -183.65,-1.41l-6.57 4.07 190.22 -2.66z"/>
   <path class="fil3" d="M1045.19 2081.1c29.23,6.65 164.94,8.29 189.61,-2.15l0.48 -181.22 -7.17 -1.34 0.63 183.56 -180.18 0.12 0.56 -184.77 -5.07 0.32 1.13 185.48z"/>
   <path class="fil1" d="M1445.12 382.17l3.27 10.52c-3.58,10.66 -6,8.42 4.74,8.42l-4.74 -8.42 -3.27 -10.52 -0.57 -5.33 261.01 -0.24 1.73 157.3c-0.17,21.33 -3.37,37.88 5.24,54.59l1.79 -160.41c0.29,-14.98 2.49,-42.94 -8.76,-51.48 -7.42,-11.05 -107.17,-3.09 -127.9,-3.86 -13.14,-0.49 -124.04,-6.94 -133.11,4.1 -11.39,-3.32 -8,2.84 0.57,5.33z"/>
   <polygon class="fil2" points="1803.53,1702.04 1992.88,1704.13 1991.71,1698.35 1808.17,1698.35 1807.94,1520.13 1991.95,1519.94 1993.25,1513.17 1803.03,1515.83 "/>
   <path class="fil1" d="M1613.33 1512.94l-0.27 191.92 -190.59 -3.15c9.36,8.53 -16.07,5.65 15.7,7.98 35.33,-0.2 154.12,1.93 174.89,-4.83 6.63,-7.27 7.42,-7.64 7.9,-25.94l-7.63 -165.97c-9.48,-2.89 -154.93,-7.04 -180.13,-1.71l-8.57 3.84 188.69 -2.14z"/>
   <path class="fil2" d="M1432.59 1321.72l-0.82 -182.82 176.39 -0.75 -0.45 184.66c4.31,-4.81 4.88,0.22 5.99,-18.96l-1.17 -168.88 -186.76 2.22 -1.11 142.26c-0.52,46.52 -2.29,37.72 7.92,42.27z"/>
   <path class="fil4" d="M850.61 1516.3l0.58 4.23 0.65 177.82c-19.54,6.85 -159.92,5.24 -186.47,-0.43 7.6,10.96 -3.35,7.06 22.09,8.14l166.11 -0.97 4.66 -171.22c-2.01,-24.34 0.74,-14.16 -7.6,-17.57 -4.99,-3.02 0.2,-2.23 -9.34,-3.93 -2.65,-0.47 -10.62,-0.52 -13.62,-0.56l-120.61 0.34c-42.37,-0.15 -37.03,-3.99 -42.15,7.76l185.72 -3.61z"/>
   <polygon class="fil2" points="850.74,2084.09 851.36,2076.84 670.62,2075.64 672.62,1898.87 665.35,1899.9 664.76,2083.76 "/>
   <path class="fil3" d="M2086.14 585.61c13.23,-8.56 6.8,-176.87 6.88,-205.7 34.85,-2.7 122.89,5.64 142.75,1.38l16.14 4.49c0,-11.48 -10.1,-5.66 -16.14,-4.49 -22.7,-14.51 -115.67,-10.41 -147.72,-5.8l-1.91 210.12z"/>
   <path class="fil4" d="M1230.04 1516.5l0.07 183.68 -185.24 -2.25c7.59,11.57 -4.97,8.05 22.57,8.35l166.32 -1.15 -3.72 -188.63c-10.01,-8.54 -66.84,-4.33 -80.47,-4.4 -28.85,-0.13 -57.72,0.15 -86.58,0.15 -25.32,-0.39 -7.12,-0.92 -14.17,5.12l181.22 -0.88z"/>
   <path class="fil4" d="M672.62 1898.87l179.19 -1.64 -0.45 179.6 -0.62 7.25c6.31,-7.47 6.63,-7.51 7.3,-25.2 1.31,-34.13 2.51,-147.2 -4.75,-165.93 -30.01,-3.57 -66.47,0.32 -98.13,-0.73 -15.99,-0.53 -84.29,-5.36 -89.81,7.67l7.27 -1.02z"/>
   <path class="fil2" d="M1611.63 2073.1c-27.63,7.47 -147.91,6.24 -180.02,2.99l1.43 -180.58c-13.45,5.81 -8.3,-15.6 -7.72,42.88l-0.72 143.28 167.84 1.09c18.3,-1.84 10.89,1.7 19.19,-9.65z"/>
   <path class="fil2" d="M665.36 1697.93c26.55,5.67 166.94,7.27 186.47,0.43l-180.86 -0.07 -0.23 -177.3 180.45 -0.45 -0.58 -4.23 -185.72 3.61 0.47 178.02z"/>
   <polygon class="fil2" points="1804.63,2080.95 1991.4,2083.02 1991.47,2076.84 1807.95,2076.84 1809.88,1895.38 1803.71,1895.52 "/>
   <path class="fil1" d="M1045.19 2081.1c6.31,8.68 -4.43,2.68 8.63,5.95l163.5 1.37c18.89,-1.17 13.01,3.29 17.48,-9.47 -24.67,10.44 -160.38,8.8 -189.61,2.15l-1.13 -185.48 5.07 -0.32 178.98 1.09 7.17 1.34c-7.13,-10.03 3.34,-3.45 -9.23,-7.59l-181.98 5.48c-5.91,9.36 -4.05,76.32 -3.9,95.69 0.13,16.74 2.33,31.48 2.23,48.11 -0.09,15.17 -5.97,36.66 2.8,41.68z"/>
   <path class="fil4" d="M161.27 801.95c-2.24,-24.16 -8.34,-56.61 -6.98,-80.71 1.22,-21.63 5.12,-5.86 8.14,-33.14 1.33,-12.01 2.53,-25.09 2.7,-36.67l-16.58 74.56c-0.16,20.17 -0.58,60.52 12.72,75.97z"/>
   <path class="fil4" d="M367.92 505.94c-11.66,13.54 -4.28,15.51 -17.79,36.51 -40.35,4.03 -27.07,-16.73 -82.79,-47.06 8.59,13.03 14.95,13.07 36.71,32.55 35.63,31.9 58.64,28.59 63.88,-21.99z"/>
   <path class="fil4" d="M2358.89 2395.26c27.72,-13.44 32.38,-22.9 49.2,-44.92 9.46,-12.38 10.72,-13.29 19.44,-28.55 5.98,-10.46 10.35,-18 14.45,-32.24l-7.17 10.26c-14.76,23.96 -20.09,45.03 -51.6,73.77l-24.32 21.68z"/>
   <path class="fil4" d="M103.42 326.22c-6.34,-14.27 -2.32,-8.4 -19.38,-20.57 -9.11,-6.5 -13.9,-9.68 -22.14,-16.34 -17.7,-14.3 -10.53,-21.11 -46.18,-38.53 0.84,1.09 2.06,1.41 2.53,3.27l19.41 16.08c16.45,12.43 10.95,17.5 65.76,56.08z"/>
   <path class="fil4" d="M2.73 629.32c8.57,-12.26 13.91,-52.41 14.74,-64.8 -7.21,7.33 -1.43,-6.46 -7.62,12.71 -1.44,4.47 -2.11,12.35 -2.76,16.75 -1.84,12.59 -3.88,23.19 -4.36,35.34z"/>
   <path class="fil4" d="M2225.62 2266c36.86,-15.13 30.07,-8.36 45.2,-45.2l-10.72 15.19c-4.88,8.53 -0.71,5.15 -7.43,11.86 -7.88,7.88 -6.2,3.77 -15.18,9 -10.04,5.85 -5.83,3.15 -11.87,9.15z"/>
   <path class="fil4" d="M724.54 1067.95c17.1,-4.46 18.48,-6.37 27.17,-17.93 6.97,-9.27 10.33,-15.97 10.25,-30.12 -0.66,1.01 -1.56,1.38 -1.8,3.14 -2.07,15.19 -13.89,28.25 -26.57,38.12l-5.97 4.5c-0.68,0.51 -2.05,1.53 -3.08,2.28z"/>
   <path class="fil4" d="M553.07 15.02c2.23,-0.31 15.43,-1.54 16.5,-1.77 11.62,-2.41 -12.14,5.07 8.22,-1.91 11.65,-4 9.61,-4.71 12.54,-6.46 -7.12,0.46 -14.55,0.34 -21.6,1.82 -18.37,3.84 -11.17,4.47 -15.66,8.33z"/>
   <path class="fil3" d="M386.48 96.78l-17.67 -8.79 8.19 -11.51 -20.84 9.75c7.52,5.46 0.67,2.62 12.82,6.33 1.26,0.38 2.65,0.62 3.98,0.99l13.52 3.24z"/>
   <path class="fil4" d="M453.39 149.44c-13.59,-21.83 -13.81,-23.19 -33.18,-33.74l33.18 33.74z"/>
   <path class="fil4" d="M1165.25 375.73c-0.7,-1.11 -1.79,-4.11 -2.15,-3.3l-15.28 -19.63c-5.74,-5.96 -1.88,-2.26 -8.83,-7.6 5.51,9.27 2.13,4.93 10.8,15.31 0.97,1.16 6.16,7.09 6.79,7.73 5.63,5.64 2.25,2.47 8.66,7.49z"/>
   <path class="fil4" d="M411.54 2448.24c-1.26,-0.82 -2.67,-2.01 -3.73,-2.53l-26.31 -6.5c4.09,2.71 2.92,3.96 14.46,7.22 7.01,1.97 9.15,1.02 15.57,1.81z"/>
  </g>
 </g>
</svg>
