<?xml version="1.0" encoding="UTF-8"?>
<!DOCTYPE svg PUBLIC "-//W3C//DTD SVG 1.1//EN" "http://www.w3.org/Graphics/SVG/1.1/DTD/svg11.dtd">
<!-- Creator: CorelDRAW 2019 (64-Bit) -->
<svg xmlns="http://www.w3.org/2000/svg" xml:space="preserve" width="85.8909mm" height="92.4028mm" version="1.1" style="shape-rendering:geometricPrecision; text-rendering:geometricPrecision; image-rendering:optimizeQuality; fill-rule:evenodd; clip-rule:evenodd"
viewBox="0 0 1825.19 1963.57"
 xmlns:xlink="http://www.w3.org/1999/xlink">
 <defs>
  <style type="text/css">
   <![CDATA[
    .fil1 {fill:black}
    .fil2 {fill:#474747}
    .fil3 {fill:#7B7B7B}
    .fil0 {fill:#FDFDFD}
   ]]>
  </style>
 </defs>
 <g id="Capa_x0020_1">
  <metadata id="CorelCorpID_0Corel-Layer"/>
  <g id="_2870218507152">
   <path class="fil0" d="M898.92 1597.02l26.33 0.08c6.08,20.89 -0.13,62.04 2.46,85.75l-28.68 -1.04 -0.11 -84.79zm276.33 -68.4l20.86 -10.19c5.99,6.47 37.67,60.67 40.88,71.15 -7.51,7.23 -11.35,10.45 -22.57,12.55 -9.29,-21.64 -27.68,-44.76 -39.17,-73.51zm-563.09 74.81l-24.39 -12.57c4.8,-13.07 33.41,-63.08 41.19,-71.74l21.62 11.26c-8.72,21.14 -26.27,44.63 -34.47,61.64 -5.16,10.69 -1.78,3.47 -3.95,11.41zm767.71 -268.41l11.56 -21.68 72.41 41.87 -12.78 22.3 -62.52 -35.32c-6.16,-3.77 -4.1,-2.17 -8.67,-7.17zm-1005.27 42.15l-12.65 -20.5 5.01 -4.72c0.43,-0.33 1.27,-0.93 1.77,-1.28l27 -15.82c11.96,-7.1 24.07,-13.4 36.93,-20.6l13.06 20.51c-8.52,9.08 -58.21,36.25 -71.11,42.41zm1165.85 -311.5l-78.75 -0.32c-6.19,-5.15 -5.13,8.63 -5.03,-9.42l0.74 -17.5 84.95 -0.81 2.13 18.28c0.76,22.24 1.08,3.2 -4.04,9.77zm-1174.43 -25.91c0.38,0.82 1.04,1.05 1.18,2.43 1.38,14.06 8.26,11.82 -1.94,23.51l-80.54 0.32 -2.91 -4.47c-3.19,-11.31 -1.3,-14.03 1.79,-22.81 11.07,-1.49 80.67,-5.93 82.43,1.02zm1013.69 -273.45c18.88,-7.32 47.43,-26.37 68.15,-38.13 9.66,5.76 12.01,11.6 15.43,22.05l-71.88 39.78 -11.71 -23.7zm-933.98 -0.1c-2.07,7.55 -1.71,7.85 -5.84,14.87 -3.51,5.97 -2.85,4.53 -7.23,8.42 -13.57,-4.82 -56.51,-31.46 -70.65,-39.37 2.98,-7.47 6.97,-15.68 13.08,-23.35l70.65 39.44zm769.41 -265c10.06,4.83 12.81,7.46 22.6,10.94 -4.04,14.35 -31,59.36 -41.71,73.66l-21.98 -11.89 41.09 -72.71zm-627.7 10.8c10.59,-3.81 13.29,-8.07 24.33,-9.37 5.78,17.26 33.31,54.52 38.57,71.67l-21.39 11.2c-9.41,-11.71 -37.75,-59.64 -41.51,-73.5zm294.08 395.12c-3.22,-119.12 -1.04,-243.89 -0.24,-363.41 0.2,-29.65 -0.21,-59.31 -0.24,-88.97 -0.02,-29.33 -1.79,-60.51 30.64,-62.19 32.35,-1.67 32.4,28.56 32.34,56.07l0.23 542.88c0.14,19.45 11.87,106.5 -40.7,90.46 -11.79,-3.6 -19.12,-12.03 -21.47,-24.38 -6.59,-34.56 -11.59,-40.49 -23.03,-68.23 -34.31,-83.2 -72.14,-173.27 -106.99,-255.25l-79.87 -190.63c-7.24,-17.81 -24.19,-51.78 -27.1,-65.37 -6.39,-29.9 32.76,-42.07 46.03,-18.1 10.68,19.28 18.74,43.78 27.52,64.7l156.84 374.18c3.99,7.28 2.5,4.39 6.02,8.25zm-732.71 204c1.08,6.63 0.62,-3.69 1.6,9.14l6.66 55.28c15.03,104.4 56.92,205.06 114.02,293.51l62.43 83.18c8.98,9.58 14.62,16.29 21.71,24.37 17.25,19.66 31.65,32.82 48.18,46.81 64.96,55 138.93,106.58 237.65,144.2 88.14,33.6 217.95,59.28 330.77,47.64 190.8,-19.68 331.01,-86.83 465.29,-205.82 49.1,-43.51 95.75,-101.78 129.41,-158.81 77.15,-130.7 128.14,-293.88 109.57,-457.67 -20.32,-179.24 -82.84,-339.31 -205.55,-464.75 -16.8,-17.17 -32.09,-32.55 -47.63,-47.12 -59.42,-55.72 -132.82,-95.47 -205.95,-131.35l-51.89 -19.89c-6.39,-2.29 -12.52,-4.45 -18.29,-6.36 -42.37,-14.03 -89.14,-25.22 -134.91,-30.53l-64.3 -5.56c-74.62,-5.29 -147.43,3.89 -218.95,22.07l-106.31 34.49c-6.91,2.77 -10.64,4.47 -17.37,7.59l-65.25 32.6 -119.31 82.74c-2.84,2.24 -4.07,3.03 -7.06,5.47 -4.4,3.61 -8.34,7.18 -12.89,11.45l-10.65 10.92c-0.63,0.64 -2.47,2.41 -3.12,3.03l-17.22 16.47c-0.44,0.45 -1.03,1.15 -1.46,1.6l-32.61 34.75c-0.4,0.5 -0.92,1.25 -1.32,1.75l-8.4 10.29c-3.72,4.24 -2.2,2.41 -6.1,6.57 -15.08,16.05 -24.04,32.22 -36.85,49.05 -1.33,1.75 -3.55,4.01 -5.36,6.46 -17.28,23.37 -29.43,48.43 -43.28,73.69 -0.32,0.59 -0.83,1.3 -1.15,1.88l-15.02 30c-0.28,0.67 -0.59,1.49 -0.87,2.17l-33.02 84.1c-2.08,5.88 -3.92,12 -5.7,18.5 -1.68,6.14 -2.62,8.55 -4.74,16.87 -0.88,3.47 -1.53,7.09 -2.38,10.34 -0.12,0.46 -2.17,7.22 -2.84,9.55l-20.87 144.24c-0.53,23.82 -2.23,73.36 1.3,95.1z"/>
   <path class="fil1" d="M148.81 1111.13c-3.54,-21.74 -1.83,-71.28 -1.3,-95.1l20.87 -144.24c0.67,-2.34 2.72,-9.09 2.84,-9.55 0.84,-3.26 1.49,-6.87 2.38,-10.34 2.11,-8.32 3.06,-10.73 4.74,-16.87 1.78,-6.5 3.62,-12.62 5.7,-18.5l33.02 -84.1c0.28,-0.68 0.59,-1.5 0.87,-2.17l15.02 -30c0.32,-0.58 0.83,-1.29 1.15,-1.88 13.85,-25.26 26,-50.32 43.28,-73.69 1.81,-2.45 4.02,-4.7 5.36,-6.46 12.81,-16.83 21.77,-32.99 36.85,-49.05 3.91,-4.16 2.39,-2.32 6.1,-6.57l8.4 -10.29c0.4,-0.5 0.92,-1.25 1.32,-1.75l32.61 -34.75c0.44,-0.45 1.03,-1.15 1.46,-1.6l17.22 -16.47c0.64,-0.62 2.49,-2.4 3.12,-3.03l10.65 -10.92c4.54,-4.27 8.48,-7.84 12.89,-11.45 2.99,-2.45 4.22,-3.23 7.06,-5.47l119.31 -82.74 65.25 -32.6c6.73,-3.12 10.47,-4.82 17.37,-7.59l106.31 -34.49c71.52,-18.18 144.33,-27.36 218.95,-22.07l64.3 5.56c45.76,5.32 92.54,16.5 134.91,30.53 5.77,1.91 11.9,4.07 18.29,6.36l51.89 19.89c73.13,35.89 146.53,75.64 205.95,131.35 15.54,14.57 30.84,29.95 47.63,47.12 122.71,125.43 185.24,285.51 205.55,464.75 18.57,163.79 -32.42,326.97 -109.57,457.67 -33.66,57.03 -80.31,115.29 -129.41,158.81 -134.27,118.99 -274.49,186.14 -465.29,205.82 -112.82,11.64 -242.63,-14.05 -330.77,-47.64 -98.72,-37.62 -172.69,-89.2 -237.65,-144.2 -16.53,-13.99 -30.93,-27.15 -48.18,-46.81 -7.09,-8.08 -12.73,-14.79 -21.71,-24.37l-62.43 -83.18c-57.1,-88.45 -98.99,-189.11 -114.02,-293.51l-6.66 -55.28c-0.98,-12.83 -0.53,-2.51 -1.6,-9.14zm430.11 -908.17c-14.82,-28.66 -34.65,-77.58 -72.77,-79.78 -27.99,-1.62 -183.86,93.3 -192.78,108.18 -22.71,37.89 15.38,81.44 29.43,106.87 -10.87,13.32 -30.29,26.73 -47,43.82 -53.04,54.24 -80.66,75.82 -127.23,142.99 -177.27,255.7 -216.85,557.14 -108.66,851.49 95.85,260.78 302.64,444.81 548.4,535.14 151.12,55.54 311.75,64.26 471.23,36.89 22.37,-3.84 49.91,-10.67 75.24,-17.1 53.21,-13.49 149.98,-52.06 193.13,-77.29 10.47,-6.13 19.54,-11.6 28.57,-16.78 9.94,-5.7 17.08,-10.78 26.7,-16.33 35.56,-20.53 72.07,-52.02 103.42,-77.58 23.54,-19.2 57.34,-49.4 75.94,-71.39 0.58,-0.68 2.19,-2.72 2.75,-3.42l12.89 -14.75c37.59,-41.71 101.51,-130.83 124.87,-181.69l66.19 -166.76c1.06,-3.33 1.77,-5.16 2.94,-9.07 1.96,-6.52 0.52,-1.24 2.7,-9.95 1.55,-6.22 2.51,-10.52 4.18,-17.48 35.66,-148.12 34.57,-292.59 -1.78,-439.77 -3.39,-13.73 -5.81,-24.49 -9.5,-36.31 -3.83,-12.28 -6.66,-20.67 -10.63,-32.36 -30.79,-90.53 -68.49,-161.58 -121.47,-237.53 -24.51,-35.13 -51.47,-67.42 -82.18,-98.75l-90.85 -86.02c14.77,-25.37 53.09,-73.14 28.28,-109.03 -8.43,-12.2 -162.85,-108.68 -194.73,-105.55 -33.59,3.29 -50.65,42.24 -70.02,79.16 -59.3,-18.72 -126.27,-45.64 -196.66,-52.13 -1.6,-47.48 6.61,-95.87 -17.89,-126.34 -23.72,-29.5 -73.57,-23.22 -120.51,-23.61 -52.31,-0.44 -90.5,-6.48 -117.97,26.14 -25.54,30.32 -15.57,78.05 -17.18,123.99 -34.42,4.11 -73.21,12.86 -103.66,21.62 -31.37,9.02 -64.2,22.06 -93.39,30.48z"/>
   <path class="fil1" d="M881.52 907.13c-3.52,-3.87 -2.04,-0.97 -6.02,-8.25l-156.84 -374.18c-8.78,-20.92 -16.84,-45.42 -27.52,-64.7 -13.27,-23.97 -52.42,-11.8 -46.03,18.1 2.91,13.59 19.86,47.56 27.1,65.37l79.87 190.63c34.85,81.98 72.67,172.05 106.99,255.25 11.44,27.74 16.43,33.67 23.03,68.23 2.36,12.35 9.68,20.78 21.47,24.38 52.57,16.04 40.84,-71.01 40.7,-90.46l-0.23 -542.88c0.06,-27.51 0,-57.74 -32.34,-56.07 -32.43,1.67 -30.66,32.86 -30.64,62.19 0.02,29.65 0.44,59.31 0.24,88.97 -0.81,119.53 -2.99,244.3 0.24,363.41z"/>
   <path class="fil1" d="M362.01 750.13c14.14,7.91 57.08,34.55 70.65,39.37 4.38,-3.88 3.72,-2.45 7.23,-8.42 4.13,-7.02 3.77,-7.32 5.84,-14.87l-70.65 -39.44c-6.11,7.67 -10.1,15.88 -13.08,23.35z"/>
   <path class="fil1" d="M587.44 512.01c3.76,13.86 32.1,61.8 41.51,73.5l21.39 -11.2c-5.26,-17.15 -32.79,-54.41 -38.57,-71.67 -11.04,1.3 -13.74,5.56 -24.33,9.37z"/>
   <path class="fil1" d="M1174.06 573.91l21.98 11.89c10.71,-14.3 37.67,-59.31 41.71,-73.66 -9.79,-3.48 -12.55,-6.11 -22.6,-10.94l-41.09 72.71z"/>
   <path class="fil1" d="M1175.25 1528.63c11.49,28.75 29.89,51.87 39.17,73.51 11.23,-2.1 15.06,-5.31 22.57,-12.55 -3.21,-10.48 -34.89,-64.68 -40.88,-71.15l-20.86 10.19z"/>
   <path class="fil1" d="M612.16 1603.44c2.17,-7.94 -1.21,-0.73 3.95,-11.41 8.21,-17.01 25.76,-40.49 34.47,-61.64l-21.62 -11.26c-7.78,8.66 -36.39,58.68 -41.19,71.74l24.39 12.57z"/>
   <path class="fil1" d="M374.6 1377.17c12.9,-6.16 62.6,-33.33 71.11,-42.41l-13.06 -20.51c-12.85,7.2 -24.97,13.49 -36.93,20.6l-27 15.82c-0.49,0.35 -1.33,0.95 -1.77,1.28l-5.01 4.72 12.65 20.5z"/>
   <path class="fil1" d="M1379.87 1335.02c4.57,4.99 2.51,3.39 8.67,7.17l62.52 35.32 12.78 -22.3 -72.41 -41.87 -11.56 21.68z"/>
   <path class="fil1" d="M1379.72 766.31l11.71 23.7 71.88 -39.78c-3.42,-10.45 -5.77,-16.29 -15.43,-22.05 -20.72,11.76 -49.27,30.81 -68.15,38.13z"/>
   <polygon class="fil1" points="284.72,1066.01 365.26,1065.7 366.02,1039.76 284.4,1040.93 "/>
   <polygon class="fil1" points="1461.7,1065.34 1540.45,1065.67 1540.93,1041.09 1459.66,1040.72 "/>
   <polygon class="fil1" points="901.69,1601.82 901.46,1679.27 923.82,1678.82 923.87,1601.86 "/>
   <path class="fil2" d="M923.87 1601.86l-0.05 76.96 -22.36 0.45 0.23 -77.45 22.18 0.05zm-24.85 79.96l28.68 1.04c-2.59,-23.72 3.62,-64.86 -2.46,-85.75l-26.33 -0.08 0.11 84.79z"/>
   <path class="fil3" d="M284.72 1066.01l-0.33 -25.08 81.63 -1.18 -0.76 25.94c10.2,-11.69 3.32,-9.45 1.94,-23.51 -0.13,-1.38 -0.79,-1.62 -1.18,-2.43 -1.76,-6.95 -71.36,-2.51 -82.43,-1.02 -3.09,8.78 -4.98,11.5 -1.79,22.81l2.91 4.47z"/>
   <path class="fil3" d="M1461.7 1065.34l-2.04 -24.63 81.27 0.37 -0.47 24.58c5.12,-6.57 4.8,12.46 4.04,-9.77l-2.13 -18.28 -84.95 0.81 -0.74 17.5c-0.1,18.05 -1.16,4.28 5.03,9.42z"/>
  </g>
 </g>
</svg>
