<?xml version="1.0" encoding="UTF-8"?>
<!DOCTYPE svg PUBLIC "-//W3C//DTD SVG 1.1//EN" "http://www.w3.org/Graphics/SVG/1.1/DTD/svg11.dtd">
<!-- Creator: CorelDRAW 2019 (64-Bit) -->
<svg xmlns="http://www.w3.org/2000/svg" xml:space="preserve" width="136.31mm" height="84.5991mm" version="1.1" style="shape-rendering:geometricPrecision; text-rendering:geometricPrecision; image-rendering:optimizeQuality; fill-rule:evenodd; clip-rule:evenodd"
viewBox="0 0 5627.71 3492.76"
 xmlns:xlink="http://www.w3.org/1999/xlink">
 <defs>
  <style type="text/css">
   <![CDATA[
    .fil0 {fill:#13AC4C}
    .fil2 {fill:#4C5A63}
    .fil11 {fill:#689E62}
    .fil4 {fill:#6B7984}
    .fil12 {fill:#7BA6B0}
    .fil9 {fill:#8D6A53}
    .fil13 {fill:#9ED5A1}
    .fil6 {fill:#AAA5A8}
    .fil10 {fill:#B6EDCA}
    .fil5 {fill:#CA9357}
    .fil7 {fill:#D8CBC5}
    .fil3 {fill:#DC6C4B}
    .fil1 {fill:#E8BC8F}
    .fil8 {fill:#F5F6F5}
   ]]>
  </style>
 </defs>
 <g id="Capa_x0020_1">
  <metadata id="CorelCorpID_0Corel-Layer"/>
  <g id="_2870222407040">
   <path class="fil0" d="M3313.66 1753.18c-14.71,-48.54 -30.98,-111.79 -71.43,-143.54l-102.55 -188.45c28.48,-41.4 -2.08,-13.1 47.33,-41.26l18.6 -7.18c33.03,-37.26 10.83,4.99 21.08,-62.52 -148.99,-106.86 -41.24,-87.81 -128.95,-139.99 -2.59,3.69 -5.38,5.03 -6.23,11.99 -0.85,6.96 -4.64,8.78 -5.68,12.26l-10.35 85.34c-0.94,65.86 11.08,54.25 -20.82,93.44l1.56 97.02c-43.46,-12.32 -23.34,16.38 -39.16,-30 -4,-11.71 0.82,-57.43 1.92,-71.24l-23.76 3.13c-2.74,70.97 7.44,58.56 -13.98,97.12 -26.05,-23.24 -34.41,-5.68 -24.12,-99.92l-26.34 2.47c4.92,122.33 -6.96,81.85 -22.36,98.51 -17.27,-25.44 -11.54,5.02 -17.72,-45.56 -1.03,-8.43 0.99,-41.61 1.14,-52.48l-24.14 -0.46c-0.33,9.48 0.45,48.5 -0.22,53.03 -7.67,51.6 1.45,17.94 -17.31,46.24 -20.02,-21.26 -18.11,-2.46 -24.62,-45.79 -1.6,-10.64 2.37,-44.23 3.1,-56.45 -4.92,-12.13 -12.54,-59.37 -13.65,-104.16l3.94 -86.2c0.86,-4.34 2.3,-8.44 3.24,-12.21 0.91,-3.65 3.15,-8.69 3.99,-11.56 0.83,-2.84 2.53,-7.68 4.39,-11.24l-4.09 -83.05 27.93 -14.91 49.27 0.48 18.51 -3.04c38.18,2.98 18.01,48.85 29.26,100.51l3.07 -4.38 0.82 -78.69 31.79 -16.86 31.35 -0.87 35.48 2.6c38.58,2.63 493.88,24.58 524.54,-17.29 28.82,-39.36 -14.14,-286.09 26.79,-320.44 8.1,-6.8 243.22,-44.8 259.48,23.13 4.52,18.91 4.82,13.13 7.15,37.85 11.96,126.38 -24.96,466.01 12.96,553.1l88.47 30.2 -1.22 -759.13 -2344 3.39 -0.78 465.72 69.09 -31.17c54.76,-45.67 1.49,-26.25 63.17,-46.75 42.59,-14.16 28.24,7.77 83.01,-21.05 -16.88,-17.45 30.91,-25.33 -52.44,-17.54l-41.97 0.65c-24.39,-25.45 -16.5,25.22 -20.76,-31.2 46.55,-23.66 19.27,-18.55 74.8,-10.69 64.82,-1.5 57.57,-14.63 129.92,-17.49 49.37,-1.95 99.39,1.54 149.47,1.01 56.55,-9.24 82.91,-13.98 131.57,9.57l14.57 12.56 14.06 16.35c5.31,32.84 16.25,33.26 -12.26,21.16l5.59 34.83 -4.34 128.64 -106.4 10.78 -0.99 32.28 -3.87 5.2 3.87 -5.2c63.28,-0.9 78.71,9.93 101.24,48.75l10.11 10.97c142.86,2.94 243.46,7.32 305.53,98.58 140.69,206.86 -31.72,462.77 -268.05,416.37 -172.08,-33.78 -164.97,-161.38 -209.96,-179.02l-54.68 117.68 -48.79 163.6c92.25,-2.04 895.28,-14.26 923.49,13.59l17.22 75.66c0.01,0.57 -3.25,41.36 -3.43,42.22 -20.49,96.42 -88.69,50.5 -250.02,59.29l-538.71 -6.18c-246.81,7.75 -106.6,-9.43 -182.17,-124.08l-36.35 163.22 1570.23 -7.03 -42.48 -97.56c-28.62,-17.64 9.72,-8.86 -56.47,-16.65 -73.31,-8.63 -26.6,13.38 -70.34,-10.81 -9.39,-5.2 -75.87,-62.27 -90.02,-90.53 71.86,20.83 21.75,30.11 102.19,32.51 -16.93,-115.15 -78.47,-121.48 -154.31,-184.11 -46.39,-38.32 -48.55,-53.62 -121.57,-56.38 -55.58,-2.1 -120.09,-5.77 -169.38,11.52l-13.39 71.95c71.63,23.38 161.77,0.73 218.95,17.27 6.24,1.8 66.06,36.17 73.16,41.75 22.43,17.63 36.47,35.3 62.35,52.45 -21.07,27.05 -9.97,7.02 -33.71,-9.05l-49.46 -30.47c-2.52,-1.84 -5.52,-4.86 -8.15,-6.76 -111.65,-80.71 -341.58,11.81 -409.02,-32.98 -31.24,-20.75 -33.56,-131.21 11.89,-147.09l369.24 14.55 207.7 154.76c2.51,1.75 7.3,5.1 9.36,6.55 2.08,1.47 6.13,4.71 9.25,6.97l8.87 -22.11zm-764.9 -969.37c38.73,-107.63 -14.59,-87.9 301.38,-87.63 230.46,0.19 290.48,-30.96 295.86,88.22 88.56,-5.52 29.65,-27.23 113.94,-38.2 25.63,-3.34 110.87,-1.51 127.01,11.56 43.08,34.87 62.39,125.42 -164.38,95.88l-12.24 -7.83 -13.97 -14.57 -45.07 -7.28 -21.47 79.04 -557.75 -4.07 -17.19 -79.48c-60.63,2.31 -37.74,3.27 -61.64,28.64 -1.26,1.33 -4.97,10.12 -5.84,7.87 -0.88,-2.28 -3.67,5.51 -5.85,7.99 -79.4,-7.12 -110.47,7.13 -179.01,-30.9 -38.32,-171.13 246.19,-49.24 246.22,-49.24z"/>
   <path class="fil1" d="M1842.56 962.89c-54.77,28.82 -40.41,6.89 -83.01,21.05 -61.68,20.5 -8.41,1.08 -63.17,46.75 -121.59,137.78 -309.01,30.07 -554.88,374.63 -120.8,169.3 -183.21,195.38 -220.76,245.31 -78.59,104.5 38.8,263.24 61.31,369.32 66.52,153.65 91.61,237.6 91.35,452.66l334.82 29.02 265.79 20.53c32.62,-41.64 36.7,-48.39 54.3,-76.82 25.71,-41.51 29.13,-58.91 69.05,-88.56 20.49,-52.86 -6.57,-15.75 31.22,-26.53l14.8 10.25 -14.8 -10.25 -258.5 -338.57c-272.12,-330.94 -125.49,-361.71 26.93,-568.05 34.45,-46.64 22.54,-55.14 60.1,-84.93 78.37,-62.16 377.98,-212.29 318.96,-382.86 -54.42,-19.18 -73.61,-13.15 -133.51,7.04z"/>
   <path class="fil2" d="M914.73 3492.76l801.78 0 71.14 -862.99 -27.55 -4.57c-103.22,-8.37 -438.05,-16.54 -500.07,-51.49l-105.15 2.89c-50.88,-4.94 -86.34,1.21 -121.23,-21.81 -62.44,26.58 -43.38,62.59 -57.13,218.72l-61.78 719.24z"/>
   <path class="fil2" d="M4507.85 825.31l-2.7 -16.37 -8.97 -26.85c10.34,-10.29 30.62,-10.21 30.65,-10.21l27.79 -35.3c43.42,-44.29 98.9,-46.71 136.29,-52.57 17.2,-2.7 5.51,-29.36 96.76,26.72 1.14,-30.21 17.46,5.44 -14.9,-37.89l46.1 25.62c3.91,2.33 6.85,5.32 10.27,7.35 23.77,14.14 -22.66,15.94 27.5,10.59l27.36 23.69 -3.65 39.16c24.33,-2.25 22.81,-9.21 14.72,12.31 38.25,-31.18 9.11,-5.54 42.61,-26.98 13.11,94.61 24.32,60.1 43.48,160.36l-27.96 130.08c-51.83,101.61 -36.11,27.69 -60.47,94.41 -11.47,31.41 2.8,-5.91 -4.03,28.83l-72.24 -22.91c-161.93,85.52 -282.7,-40.48 -322.88,-138.6 -1.25,-0.52 -3.75,-0.04 -4.07,-0.03l-8.06 0.47c-26.17,0.76 22.2,16.77 -12.53,-0.44 15.91,-33.34 18.74,-129.86 38.93,-191.44zm530.11 -204.44c-16.19,50.65 -102.76,27.93 -131.25,16.04l3.53 -64.57c6.38,-3.62 -5.32,-9.36 37.29,-16.78 47.33,-8.23 108.76,7.94 90.42,65.31zm-624.03 -50.26c145.79,-70.38 199.56,118.18 -5.3,70.67l5.3 -70.67zm614.58 -121.83l-13.67 22.79c-38.73,28.19 -532.32,26.73 -594.89,6.29l-10.32 -11.54 2.61 -301.12 477.02 -16.76c15.49,-0.22 60.85,-1.79 73.53,-0.26l51.65 16.18c2.36,-3.55 7.84,4.28 17.04,6.92l-2.98 277.49zm-339.93 1111.38c21.25,88.43 7.03,454.51 7.03,578.07 0.01,204.82 35.23,373.75 -156.97,428.06l-144.53 9.97 30.9 42.97c128.34,11.99 201.36,-21.94 258.53,-89.55 65.81,-77.83 61.22,-168.32 60.93,-289.51 -0.27,-110.31 -15.21,-623.93 11.25,-682.59l107.03 -60.22c4.86,-100.5 -41.42,-207.73 69.39,-201.34 97.39,5.61 48.89,113.64 59.2,213.73 144.78,-36.84 104.5,-190.79 104.92,-420.2 2.26,-1214.07 117.04,-1032.63 -512.93,-1038 -256.31,-2.18 -241.59,53.38 -240.38,295.19l1.03 1035.05c8.37,91.55 45.15,126.37 136.48,133.9 42.16,3.48 93.62,-3.98 131.53,0.39 48.57,5.6 15.28,-3.26 44.17,13.28 31.57,18.08 21.53,19.07 32.44,30.78z"/>
   <path class="fil1" d="M3139.68 1421.19c94.92,5.4 101.89,10.42 151.64,54.27 1.13,81.3 7.75,95.52 -49.09,134.18 40.45,31.75 56.71,95 71.43,143.54 63.04,70.93 3.44,62.67 21.89,118.72 22.23,67.54 45.58,-16.92 80.98,77.94l42.48 97.56c10.69,80.69 48.11,183.03 72.1,269.5 17.75,63.98 73.94,209.34 75.91,257.07l44.16 49.47c41.52,30.86 16.45,16.44 43.94,53.04 35.84,47.71 -13.52,17.18 51.62,40.9l175.91 -14.43c90.96,-42.32 323.48,-32.72 437.98,-76.03 -17.86,-26.18 -131.59,-330.99 -159.43,-398.71 -66.62,-162.08 -122.83,-258.6 -237.2,-337.2l3 19.21 -9.97 26.51 -68.56 -2.44c-85.35,-2.32 -109.38,6.11 -150.61,-47.26l-20.93 -20.15 -21.44 -7.98 -22.56 -4.86 -0.65 -21.75c-26.96,-28.96 -136.44,-234.04 -152.75,-265.4l-14.23 -10.3 -4.45 -10.59c-59.36,-48.72 -171.82,-182.9 -299.53,-174.54l-14.32 8.47c-49.41,28.15 -18.85,-0.14 -47.33,41.26z"/>
   <polygon class="fil2" points="4016.86,2773.84 3942.57,2791.06 3669.42,2824.36 3635.66,2837.58 3717.17,3492.76 4518.96,3492.76 4438.17,2824.86 4403.77,2738.01 "/>
   <path class="fil1" d="M3369.62 1188.26c5.28,54.23 15.4,80.32 32.76,119.03 74.23,61.76 150.32,131.76 239.48,184.54 97.63,57.79 51.74,82.76 137.27,124.48 47.13,22.99 82.69,100.06 207.65,215.62 114.42,105.81 165.08,146.6 240.62,327.23 55.58,132.89 100.85,283.71 166.71,417.12l144.53 -9.97 -137.52 1.82c-20.43,-78.69 -62.22,-95.4 -36.05,-207.83 13.7,-58.83 45.67,-126.3 62.03,-183.72 113.24,-397.37 131.18,-245.81 -88.57,-478.13 -193.59,-204.66 -98.21,-174.48 -365.25,-346.57l-88.47 -30.2c-83.89,-21.49 -46.81,-7.88 -88.14,-68.41 -42.19,-6.14 -58.99,0.95 -86.48,-3.63 -46.67,-7.76 -70.04,-34.39 -163.08,-65.63l-67.65 -22.4c-59.69,-9.1 -79.16,-0.14 -109.86,26.65z"/>
   <path class="fil3" d="M3205.62 1372.75l-4.28 -1.29c127.71,-8.36 240.17,125.82 299.53,174.54l4.45 10.59 14.23 10.3c2.31,-0.84 5.93,-2.14 7.06,-2.16 41.91,-0.73 63.92,28.67 111.58,62.87 31.34,22.48 28.44,21.76 60.12,41l51.9 45.16c66.5,13.12 110.26,63.61 144.4,107.75l15.16 15.12 15.33 13.05 15.68 14.53 11.86 15.97 11.39 10.83c114.36,78.6 170.58,175.11 237.2,337.2 27.84,67.72 141.57,372.53 159.43,398.71l43.13 111.09 34.4 86.85c122.38,197.9 107.78,438.56 350.38,519.73 258.29,86.41 459.5,-119.95 463.15,-361.06 4.32,-285.4 0.96,-574.47 0.54,-860.22 -0.22,-146.67 -28.95,-246.66 -152.18,-282.12 -223.2,-64.21 -116.67,-28.93 -155.61,-267.94 -8.05,-38.09 -19.71,-38.64 14.9,-21.14l24.71 -33.25c1.04,-5.25 4.8,-6.1 7.27,-9.1 -10.3,-100.09 38.19,-208.11 -59.2,-213.73 -110.81,-6.39 -64.53,100.84 -69.39,201.34l-107.03 60.22c113.24,2.85 145.92,-26.06 146.5,83.79 0.43,79.28 -10.24,150.61 38.42,198.66 70.81,69.93 231.96,7.12 260.47,185.85l3.37 913.81c1.6,409.6 -348.75,419.43 -492.45,307.66 -93.74,-72.91 -282.26,-574.48 -287,-628.13l-30.9 -42.97c-65.87,-133.42 -111.14,-284.23 -166.71,-417.12 -75.54,-180.63 -126.2,-221.41 -240.62,-327.23 -124.96,-115.56 -160.52,-192.63 -207.65,-215.62 -85.53,-41.72 -39.63,-66.69 -137.27,-124.48 -89.16,-52.77 -165.25,-122.78 -239.48,-184.54 -30.72,-13.86 -28.39,-13.55 -52.71,-32.27 -0.29,-0.23 -22.65,-17.88 -24.05,-19.12 -19.49,-17.39 -10.47,-9.67 -21.31,-23.65 -28.86,10.58 -21.78,15.78 -21.78,-14.82l-7.37 1.3 -42.49 -31.52 -19.59 -8.87c-43.36,2.14 -27.14,-1.64 -55.89,14.15 -17.99,79.78 62.38,79.1 99.86,165.68l-51.42 14.59z"/>
   <path class="fil1" d="M2119.5 1158.99c-123.99,40.09 -181.81,120.55 -251.7,185.98 -81.41,76.2 -93.67,200.78 -154.09,283.56 -17.48,37.86 -38.16,56.29 -85.35,74.28l-19.62 37.16 -133.52 12.74c19.06,96.52 111.37,189.15 163.19,257.03 56.91,74.55 128.1,176.5 195.36,228.86l55.03 -184.16 36.35 -163.22c12.48,-70.37 44.73,-177.63 82.43,-224.09l54.68 -117.68 66.19 -163.48 14.59 -8.28 -14.59 8.28c-58.49,-40.55 -53.07,-58.85 -47.36,-134.44 35.77,-26.4 71.86,-48.77 143.54,-48.98l4.15 33.21 5.96 -22.24 -10.11 -10.97c-22.53,-38.83 -37.96,-49.65 -101.24,-48.75l-3.87 5.2z"/>
   <path class="fil2" d="M1802.19 904.1c1.85,0.52 27.4,7.5 27.68,7.63 34.7,15.54 1.64,-5.35 25.33,18.97l-65.08 14.65 -41.97 0.65 41.97 -0.65c83.36,-7.79 35.56,0.09 52.44,17.54 59.91,-20.2 79.1,-26.22 133.51,-7.04 59.02,170.57 -240.59,320.69 -318.96,382.86 -37.56,29.79 -25.66,38.29 -60.1,84.93 -152.42,206.35 -299.05,237.11 -26.93,568.05l258.5 338.57 14.8 10.25c224.62,313.72 277.94,282.16 759.15,282.16 348.59,0 700.56,-4.68 1048.65,0.78l-44.16 -49.47c-354.13,-1.63 -708.56,-0.47 -1062.75,-0.47 -151.22,0 -356.63,27.25 -472.87,-49.03 -50.9,-33.4 -213.62,-224.12 -237.66,-285.87 -67.26,-52.36 -138.45,-154.31 -195.36,-228.86 -51.82,-67.88 -144.13,-160.51 -163.19,-257.03 -12.68,-123.28 60.08,-225.75 154.56,-240.02 44.36,-32.47 27.51,-35.8 83.51,-46.55l0.44 162.39c60.42,-82.78 72.68,-207.36 154.09,-283.56 69.9,-65.43 127.71,-145.88 251.7,-185.98l3.87 -5.2 0.99 -32.28c28.83,-82.22 74.89,-52.31 90.38,-144.2l20.36 4.79 -5.59 -34.83c28.52,12.1 17.58,11.68 12.26,-21.16l-20.49 1.51 8.23 19.66 -22.92 -5.97 -17.66 14.67 -43.55 7.15c0,21.74 4.47,14.86 -20.19,12.73l-18.74 10.42 -27.04 16.28 2.17 -114.94c-50.08,0.53 -100.1,-2.96 -149.47,-1.01 -72.35,2.86 -65.1,15.99 -129.92,17.49z"/>
   <path class="fil4" d="M892.44 440.14c18.76,210.26 -35.67,310.99 -177.15,378.02 -86.61,41.03 -434.46,44.32 -523.71,1.58 -280.39,-134.28 -101.36,-496.19 92.6,-471.71 27.93,3.53 91.54,55.07 250.23,37.25l5.54 -72.9c55.2,17.63 47.02,36.63 60.91,46.36 -6.59,-52.85 13.68,-16.32 -25.82,-46.46l0.5 -58.54c-207.8,-14.2 -230.07,27.29 -291.8,41.58 -107.67,24.93 -172.35,31.47 -222.05,102.71 -106.18,152.18 -69.49,369.49 65.58,443.35 120.08,65.67 454.94,83.24 595.06,29.04 210.03,-81.24 220.92,-267.24 224.08,-419.91 53.1,-4.26 250.72,-8.27 283.23,0.95l6.42 112.55 -18.33 14.45 -13.96 95.5 12.67 -22.6c25.79,-47.78 16.01,-22.77 1.29,-72.89 29.47,0.3 29.44,9.65 18.33,-14.45 12.39,-41.79 -3.78,-32.4 0.75,-58.64 16.57,-95.92 -28.24,-46.14 49.76,-70.63l2.87 -0.69c-43.45,-32.1 -16.69,21.48 -25.23,-58.37 -0.26,-2.49 2.67,-51.71 3.09,-57.14 4.17,-54.04 6.35,-67.56 13.21,-118.4 -32.77,-17.64 -151.71,-8.29 -190.16,-8.59 -38.98,-0.31 -58.49,-1.12 -94.43,0.11 -103.79,3.55 -50.26,-18.1 -97.29,9.43l-6.17 239.08z"/>
   <path class="fil2" d="M3024.72 1113.83c31.18,17.46 12.36,2.46 37.63,32.38 -52.42,-4.43 -41.49,25.51 -37.63,-32.38zm666.85 -67.96c51.25,-89.95 165.52,-74 123.79,61.74 -45.44,17.33 -62.88,18.57 -111.86,3.1l-11.93 -64.84zm34.68 -304.96c147.96,-8.34 128.09,154.93 -17.93,120.06 -22.34,-64.09 -30.28,-67.56 17.93,-120.06zm-672.34 304.4c-3.73,39.98 4.16,21.16 -17.87,40.42 -29.03,-22.94 -6.42,11.37 -17.61,-43.02l-31.35 0.87 5.44 106.75 -38.05 -11.21 -3.07 4.38 -97.49 -0.07 -23.38 0.08c-1.87,3.56 -3.57,8.41 -4.39,11.24 -0.84,2.88 -3.08,7.91 -3.99,11.56 -0.94,3.77 -2.37,7.87 -3.24,12.21l-3.94 86.2c1.11,44.78 8.72,92.02 13.65,104.16l39.05 2.97 24.14 0.46 38.95 -0.47 26.34 -2.47 38.1 2.81 23.76 -3.13 35.69 4.22c31.91,-39.19 19.89,-27.57 20.82,-93.44l10.35 -85.34c1.04,-3.48 4.83,-5.3 5.68,-12.26 0.85,-6.96 3.64,-8.3 6.23,-11.99 87.71,52.18 -20.04,33.13 128.95,139.99 -10.24,67.5 11.96,25.25 -21.08,62.52l-18.6 7.18 14.32 -8.47 4.28 1.29 51.42 -14.59c-37.48,-86.58 -117.86,-85.9 -99.86,-165.68 28.76,-15.79 12.53,-12.01 55.89,-14.15l19.59 8.87 42.49 31.52 -42.49 -31.52 -19.59 -8.87c-54.47,-33.46 -99.15,1.38 -149.37,-88.77 61.37,-36.73 477.25,-18.48 522.9,-8.54 -16.57,126.42 3.89,90.76 -39.47,102.98 93.04,31.24 116.41,57.87 163.08,65.63 27.49,4.57 44.29,-2.51 86.48,3.63 41.33,60.53 4.25,46.92 88.14,68.41 -37.91,-87.09 -1,-426.72 -12.96,-553.1 -2.34,-24.72 -2.63,-18.94 -7.15,-37.85 -16.26,-67.94 -251.38,-29.93 -259.48,-23.13 -40.93,34.35 2.03,281.08 -26.79,320.44 -30.65,41.87 -485.95,19.92 -524.54,17.29z"/>
   <path class="fil5" d="M4688.58 1560.17c-10.9,-11.7 -0.87,-12.7 -32.44,-30.78 -28.88,-16.54 4.4,-7.68 -44.17,-13.28 -37.91,-4.37 -89.38,3.08 -131.53,-0.39 -91.33,-7.53 -128.11,-42.35 -136.48,-133.9l-1.03 -1035.05c-1.21,-241.81 -15.93,-297.37 240.38,-295.19 629.96,5.36 515.19,-176.08 512.93,1038 -0.43,229.41 39.86,383.36 -104.92,420.2 -2.47,3 -6.23,3.85 -7.27,9.1l-24.71 33.25c-34.61,-17.5 -22.95,-16.95 -14.9,21.14 29.59,0 24.48,6.94 14.9,-21.14 213.03,44.32 183.68,-217.01 183.68,-389.72 -0,-1274.09 126.59,-1156.77 -530.55,-1161.27 -229.05,-1.57 -316.72,13.05 -314.39,258.19 1.75,184.3 0.83,369.17 0.8,553.52 -0.09,746.89 -78.24,764.69 389.7,747.33z"/>
   <path class="fil3" d="M5390.08 1225.57c14.9,59.85 5.9,21.81 -13.04,33.67 14.37,41.03 -10.73,47.37 -22.46,59.22 -42.34,232.96 42.45,276.78 62.12,461.46 21.95,110.71 -37.1,230.18 19.52,291.95 44.33,48.37 56.18,7.66 87.14,53.4 13.96,-73.11 24.02,-40.01 36.22,-91.34 17.16,-72.19 -31.24,-193.66 12.59,-333.47 97.91,-312.35 32.01,-258.98 53.13,-383.83 -4.59,0.75 -3.22,50.96 -13.3,3.36 -1.07,-5.03 -6.22,-8.52 -10.72,-11.87l-8.77 -65.75 -29.42 -58.32c-47.2,45.73 -27.71,55.18 -91.28,66.82l-61.99 -66.46 -19.73 41.14z"/>
   <path class="fil6" d="M4868.95 330.74l30.78 62.66c0.62,1.78 1.84,5.97 3.33,8.69l59.6 -1.1c-1.94,-12.63 -7.6,-19.98 -2.33,-39.04 9.86,-35.7 0.34,-9.76 18.81,-31.93 2.04,95.39 -7.97,94.57 -102.36,84.83l-7.84 -84.1zm-142.37 -0.78c29.39,34.78 16.84,45.79 30.97,70.45 34.63,-6.2 28.65,2.24 46.06,-16.75 44.39,-48.42 -22.8,35.06 11.45,-20.31l15.77 51.94c-97.32,8.31 -106.64,10.82 -104.25,-85.34zm-32.73 92.84c-71.05,6.76 -66.32,15.72 -116,-17.77l-8.34 -85.72c45.31,24.46 27.91,61.3 72.1,71.62 49.19,-34.61 -19.2,35.7 15.3,-20.5l19.33 -31.93c2.03,-2.95 5.71,-7.6 9.07,-10.94l8.54 95.24zm175.59 -115.94l7.25 -85.16 87.33 -2.42c13.03,41.88 14.37,23.39 16.89,89.19l-19.91 -36.28c-19.16,-31.02 15.02,-24.3 -29.64,-31.93 -61.49,-10.49 -14,11.32 -61.92,66.59zm-145.22 1.54c3.24,-99.82 3.17,-94.37 103.23,-85.76l11.13 85.11c-5.99,-3.27 -9.42,-13.83 -10.63,-11.36 -3.72,7.6 -29.17,-103.05 -75.99,-32.89 -2.23,3.35 -9.45,17.96 -11.83,21.69l-15.9 23.22zm-154.76 9.17l5.12 -97.44c91.44,-16.42 148.08,-19.82 110.73,89.47l-23.17 -34.34c-16.84,-26.49 27.7,-17.06 -23.07,-27.74 -42.71,-8.99 -16.91,11.41 -31.04,28.79 -3.81,4.69 -5.64,8.13 -9.61,12.86l-28.95 28.4zm-159.81 148.77l10.32 11.54c62.57,20.44 556.16,21.9 594.89,-6.29l13.67 -22.79 -13.67 22.79c-73.38,23.19 -501,16.65 -594.89,6.29l22.03 -11.55c54.7,-14.77 511.97,-6.25 565.52,-5.17l-0.29 -283.12c-62.39,0.88 -521.3,-10.99 -574.05,11.67l2.22 201.47c-5.01,69.16 8.33,33.54 -25.75,75.17z"/>
   <path class="fil2" d="M2548.77 783.81l6.12 35.64 17.19 79.48 557.75 4.07 21.47 -79.04 45.07 7.28 13.97 14.57 12.24 7.83 -12.24 -7.83 -13.97 -14.57 -39.92 -15.22 -10.43 -31.62c-5.38,-119.18 -65.4,-88.03 -295.86,-88.22 -315.96,-0.27 -262.65,-20 -301.38,87.63z"/>
   <path class="fil2" d="M2740.96 1870.27c50.53,-20.01 65.94,-17.06 120.46,-5.2 5.75,53.12 12.59,72.59 -11.22,113.02l-101.57 6.29c-14.19,-37.97 -15.68,-44.85 -7.68,-114.12zm-193.16 -3.51c58.39,-14.99 66.34,-17.08 122.98,2.1 4.91,41.8 9.29,73.06 -8.62,111.32l-106.37 6.33c-17.19,-52.05 -17.95,-43.14 -7.99,-119.75zm-185.8 2.83l106.46 -2.7 7.69 115.01 -116.57 -2.13 2.42 -110.18zm-190.47 -0.52l106.19 -1.59 7.34 112.68 -116.89 -0.34 3.36 -110.75zm-192.16 -1.56l106.91 0.21 6.63 111.99 -115.58 2.23 2.04 -114.44zm-54.23 23.69c75.58,114.65 -64.63,131.83 182.17,124.08l538.71 6.18c161.33,-8.79 229.53,37.13 250.02,-59.29 0.18,-0.85 3.44,-41.65 3.43,-42.22l-17.22 -75.66c-28.21,-27.85 -831.23,-15.62 -923.49,-13.59l48.79 -163.6c-37.71,46.46 -69.95,153.72 -82.43,224.09z"/>
   <path class="fil2" d="M1931.44 493.46l80.45 -3.2 18.76 -102.22c103.07,-28.2 28.21,30.58 197.25,-8.82 125.98,-29.37 379.83,31.63 631.45,-57.44 -219.06,-92.44 -500.5,-33.47 -633.36,-60.55 -75.65,-15.42 -109.92,-21.79 -195.79,1.97 -16.75,-112.9 23.64,-110.72 -91.65,-116.25l-7.11 346.51z"/>
   <path class="fil5" d="M1291.21 323.86l630.48 -5.24 -10.85 146.08c-79.91,5.87 -66.56,-14.21 -118.05,-39.63 -85.9,-42.42 -337.28,2.52 -508.24,-15.49l6.66 -85.72zm-10.72 -123.75c-6.86,50.84 -9.04,64.36 -13.21,118.4 -0.42,5.42 -3.36,54.65 -3.09,57.14 8.55,79.85 -18.22,26.27 25.23,58.37 95.62,17.17 233.23,4.19 337.46,2.67 70.21,-1.02 102.21,-9.92 154.65,17.88 76.74,40.68 40.67,41.27 149.9,38.9l7.11 -346.51c-167.11,-12.02 -97.58,60.14 -297.04,55.72 -119.77,-2.66 -241.05,-1.88 -361,-2.56z"/>
   <path class="fil2" d="M2283.84 1311.85c32.02,-20.55 52.67,-24.97 83.91,0.19 64.4,6.8 107.67,46.93 117.58,110.49 22.22,37.21 29.84,67.73 -5,101.44 -19.94,130.08 -203.19,161.49 -285.16,60.48 -81.21,-100.06 -34.2,-262.48 88.68,-272.61zm-55.08 -76.11c-11.45,45.87 -60.14,100.52 -85.73,141.94l-14.59 8.28 -66.19 163.48c44.98,17.63 37.87,145.24 209.96,179.02 236.32,46.39 408.74,-209.51 268.05,-416.37 -62.07,-91.25 -162.66,-95.64 -305.53,-98.58l-5.96 22.24z"/>
   <path class="fil4" d="M687.92 1831.2l69.66 -0.02 104.29 -16.26 -0.1 -565.82 -189.76 0.38c25.06,133.43 -33.91,495.99 15.91,581.72z"/>
   <path class="fil5" d="M206.32 1454.05l41.27 -3.53 97.48 -26.76 40.01 -5.65c9.26,-76.4 -51.2,-262.21 -75.87,-348.97 -91.54,-6.6 -133.68,8.62 -206.61,41.15 -6.4,63.53 20.21,131.63 36.34,188.35 10.57,37.17 13.65,51.04 25.08,89.15 14.08,46.97 5.65,49.28 42.31,66.27z"/>
   <path class="fil5" d="M4830.66 736.7l-42.99 -25.98c-157.35,8.31 -145.23,0.46 -246.56,89.34 -0.03,0.03 -28.08,21.53 -33.26,25.25 -20.19,61.58 -23.03,158.1 -38.93,191.44 34.73,17.21 -13.64,1.2 12.53,0.44l8.06 -0.47c0.32,-0.01 2.82,-0.49 4.07,0.03 40.18,98.12 160.95,224.11 322.88,138.6 16.65,-15.73 3.76,-6.37 29.9,-21.82 2.06,-1.22 21.42,-9.21 28.93,-14.63 30.3,-21.87 24.76,-30.11 46.64,-71.53 -55.07,3.55 -37.36,33.77 -75.77,50.06 -35.63,15.11 -49.66,-7.74 -85.82,-22.32 -1.48,-110.79 -10.26,-252.09 -10.75,-337.39 65.9,15.42 22.29,15.14 81.07,-1zm110.68 274.29c-47.56,-33.32 -6.89,-10.14 -26.82,5.76l9.33 43.62 17.49 -49.37zm-46.27 -219.44c-20.47,9.62 -13.99,11.35 -14.72,-12.31l-57.25 -44.5c-21.02,35.58 -3,28.22 31.31,53.77 37.36,27.82 27.28,11.8 50.66,51.74 51.43,87.84 3.23,83.63 34.38,176.41 21.13,-82.46 12.31,-173.46 -44.38,-225.12zm-11.07 -51.47l-27.36 -23.69c-8.14,44.04 -14.44,31.52 32.5,22.91l-5.14 0.78zm-357.17 31.79c-0.03,0.01 -20.31,-0.08 -30.65,10.21l8.97 26.85c2.07,-2.8 5,-10.77 5.8,-8.68 0.82,2.14 4.48,-7.22 5.56,-9.12 1.46,-2.58 8.1,-14.95 10.32,-19.27zm170.5 -35.49c-10.79,147.57 13.44,316.19 -55.22,354.3 -49.03,27.22 -69.29,14.92 -92.86,-24.12 -100.09,-165.73 9.42,-299.86 148.08,-330.19z"/>
   <path class="fil3" d="M1792.8 425.07c51.49,25.42 38.14,45.5 118.05,39.63l10.85 -146.08 -630.48 5.24 -6.66 85.72c170.97,18.01 422.34,-26.93 508.24,15.49z"/>
   <path class="fil7" d="M2283.84 1311.85c-122.88,10.14 -169.88,172.55 -88.68,272.61 81.97,101.01 265.23,69.6 285.16,-60.48l7.16 -42.63c-241.31,5.08 -144.73,11.58 -284.19,112.09 15.37,-46.5 64.65,-102.19 109.04,-125.14l4.81 -150.85 -33.31 -5.6z"/>
   <path class="fil0" d="M3213.07 1178.34l19.59 8.87 42.49 31.52 7.37 -1.3c33.08,-3.23 31.89,-13.57 21.78,14.82l40.98 -4.94 24.33 -39.05c24.58,-62.71 53.65,-62.25 109.86,-26.65l67.65 22.4c43.36,-12.22 22.9,23.44 39.47,-102.98 -45.65,-9.93 -461.53,-28.19 -522.9,8.54 50.22,90.14 94.9,55.31 149.37,88.77z"/>
   <path class="fil5" d="M670.35 242l8.99 162.91c64.78,56.03 112.2,36 213.1,35.23l6.17 -239.08c-131.77,-13.1 -144.01,-15.59 -228.26,40.94z"/>
   <path class="fil3" d="M4697.33 736.39c-138.67,30.32 -248.17,164.46 -148.08,330.19 23.58,39.04 43.84,51.33 92.86,24.12 68.66,-38.12 44.43,-206.74 55.22,-354.3z"/>
   <path class="fil3" d="M4921.93 1047.36l1.92 13.01 -9.33 -43.62c19.93,-15.9 -20.74,-39.08 26.82,-5.76l-1.89 5.68c-31.15,-92.78 17.04,-88.57 -34.38,-176.41 -23.38,-39.95 -13.3,-23.93 -50.66,-51.74 -34.31,-25.55 -52.33,-18.19 -31.31,-53.77l7.56 1.95c-58.78,16.14 -15.18,16.42 -81.07,1 0.5,85.31 9.27,226.61 10.75,337.39 36.16,14.58 50.19,37.43 85.82,22.32 38.41,-16.29 20.7,-46.5 75.77,-50.06z"/>
   <path class="fil2" d="M1236.05 563.98c11.11,24.1 11.15,14.75 -18.33,14.45 14.72,50.13 24.5,25.11 -1.29,72.89l-12.67 22.6c-1,96.41 -44.18,97.61 -46.15,221.6l184.49 4.73 6.01 -86.97c-28.06,-126.33 -70.76,-241.1 -61.54,-378.59 -78,24.5 -33.19,-25.28 -49.76,70.63 -4.53,26.24 11.63,16.86 -0.75,58.64z"/>
   <path class="fil2" d="M3416.54 1949.85c-35.4,-94.86 -58.75,-10.4 -80.98,-77.94 -18.45,-56.05 41.15,-47.79 -21.89,-118.72l-8.87 22.11c-3.13,-2.27 -7.18,-5.5 -9.25,-6.97 -2.05,-1.45 -6.85,-4.81 -9.36,-6.55l-207.7 -154.76 -369.24 -14.55c-45.45,15.88 -43.13,126.34 -11.89,147.09 67.44,44.79 297.37,-47.73 409.02,32.98 2.63,1.9 5.64,4.92 8.15,6.76l49.46 30.47c23.74,16.07 12.64,36.1 33.71,9.05 -25.88,-17.14 -39.92,-34.82 -62.35,-52.45 -7.1,-5.59 -66.92,-39.95 -73.16,-41.75 -57.19,-16.54 -147.33,6.12 -218.95,-17.27l13.39 -71.95c49.3,-17.29 113.8,-13.62 169.38,-11.52 73.02,2.76 75.18,18.06 121.57,56.38 75.84,62.64 137.38,68.96 154.31,184.11 -80.44,-2.4 -30.33,-11.68 -102.19,-32.51 14.15,28.26 80.63,85.33 90.02,90.53 43.74,24.2 -2.97,2.18 70.34,10.81 66.19,7.79 27.85,-0.99 56.47,16.65zm-654.23 -324.6c68,0.54 8.99,-0.87 34.17,14.44 69.02,79.22 -126.74,130.14 -69.8,-4.8 26.58,-11.03 -34.96,-10.2 35.63,-9.64z"/>
   <path class="fil3" d="M403.25 2026.02c-22.46,57.83 -11.88,304.48 -12.2,370.77l26.04 7.95c97.06,12.99 -45.85,0.14 28.76,3.58 15.1,0.7 48.97,-2.64 65.47,-3.54l5.53 -391.13c-69.74,-4.6 -60.79,-8.49 -113.61,12.37z"/>
   <path class="fil7" d="M4419.96 477.87c93.89,10.37 521.51,16.9 594.89,-6.29l13.67 -22.79 2.98 -277.49c-9.2,-2.63 -14.68,-10.47 -17.04,-6.92l-51.65 -16.18c-12.68,-1.53 -58.05,0.04 -73.53,0.26l-477.02 16.76 -2.61 301.12c34.09,-41.63 20.75,-6.01 25.75,-75.17l-2.22 -201.47c52.75,-22.66 511.66,-10.79 574.05,-11.67l0.29 283.12c-53.55,-1.08 -510.82,-9.59 -565.52,5.17l-22.03 11.55z"/>
   <path class="fil7" d="M1408.23 2501.63l-0.08 73.48c-57.28,22.68 -85.51,8.44 -148.13,-1.39 62.03,34.94 396.86,43.12 500.07,51.49 3.06,-152.92 -63.49,-48.61 -36.51,-140.83 5.92,-20.23 16.57,-27 33.85,-52.76 28.53,-42.54 22.33,-35.39 39.94,-74.83 -39.92,29.65 -43.33,47.05 -69.05,88.56 -17.6,28.43 -21.68,35.18 -54.3,76.82l-265.79 -20.53z"/>
   <path class="fil7" d="M3922.66 2702.95l96.74 -8.29 -2.53 79.17c-60.98,-5.87 28.82,-18.29 -32.12,-1.51 -48.42,13.33 -27.54,9.67 -42.18,18.74l74.29 -17.22 386.9 -35.83 -43.13 -111.09c-114.5,43.31 -347.02,33.71 -437.98,76.03z"/>
   <path class="fil8" d="M1033.64 2554.8l121.23 21.81 105.15 -2.89c62.62,9.83 90.85,24.07 148.13,1.39l0.08 -73.48 -334.82 -29.02c-53.44,12.58 -42.71,14.52 -39.77,82.18z"/>
   <path class="fil2" d="M672.01 1249.47l189.76 -0.38 -5.34 -159.52c-36.02,-26.24 -9.11,-14.14 -63.44,-24.49l-41.41 10.27 -75.52 -1.81 -4.06 175.93z"/>
   <path class="fil8" d="M3746.75 2717.37c-24.17,4.37 -16.01,-0.95 -41.53,8.35l-35.51 16.91c-3.31,1.7 -8.28,4.62 -12.17,7.32l11.88 74.4 273.15 -33.3c14.64,-9.07 -6.24,-5.4 42.18,-18.74 60.93,-16.78 -28.86,-4.36 32.12,1.51l2.53 -79.17 -96.74 8.29 -175.91 14.43z"/>
   <path class="fil8" d="M757.58 1831.17l-69.66 0.02c-8.86,24.85 -12.19,33.96 -11.21,74.27 0.37,15.16 1.58,25.87 4.98,40.31 17.45,74.13 150.17,45.11 162.04,34.45 29.59,-26.58 15.16,-109.23 14.93,-157.06l-101.08 8.01z"/>
   <path class="fil9" d="M5458.15 2455.34l56.49 16.41 8.72 -346.47c-30.96,-45.74 -42.81,-5.03 -87.14,-53.4 -56.62,-61.77 2.43,-181.24 -19.52,-291.95 3.01,69.5 1.3,114.6 -7.2,176.01 -18.45,133.23 7.56,58.98 32.58,140.84 26.8,87.69 -10.77,266.34 16.07,358.55z"/>
   <path class="fil10" d="M1627.29 1061.86c-117.45,46.64 -246.49,82.92 -355.91,168.17 -93.29,72.69 -162.23,198.7 -228.86,280.41l-181.98 164.56 1.23 -425.92 0.1 565.82 14.78 -35.28c19.5,43.11 28.63,85.01 47.69,132.07l50.1 98.22c1.16,-2.38 4.69,7.03 7.63,10.03 -22.51,-106.08 -139.9,-264.82 -61.31,-369.32 37.55,-49.94 99.95,-76.02 220.76,-245.31 245.87,-344.56 433.28,-236.85 554.88,-374.63l-69.09 31.17z"/>
   <path class="fil9" d="M4526.83 771.88c-2.21,4.31 -8.86,16.69 -10.32,19.27 -1.08,1.9 -4.74,11.25 -5.56,9.12 -0.8,-2.09 -3.73,5.88 -5.8,8.68l2.7 16.37c5.18,-3.72 33.23,-25.21 33.26,-25.25 101.33,-88.88 89.22,-81.04 246.56,-89.34l42.99 25.98 -7.56 -1.95 57.25 44.5c0.73,23.65 -5.75,21.93 14.72,12.31 56.69,51.66 65.51,142.66 44.38,225.12l1.89 -5.68 -17.49 49.37 -1.92 -13.01c-21.87,41.43 -16.34,49.66 -46.64,71.53 -7.51,5.42 -26.87,13.41 -28.93,14.63 -26.14,15.45 -13.25,6.09 -29.9,21.82l72.24 22.91c6.82,-34.74 -7.44,2.58 4.03,-28.83 24.36,-66.72 8.65,7.2 60.47,-94.41l27.96 -130.08c-19.16,-100.26 -30.37,-65.75 -43.48,-160.36 -33.5,21.45 -4.36,-4.2 -42.61,26.98 8.09,-21.52 9.61,-14.55 -14.72,-12.31l3.65 -39.16 5.14 -0.78c-46.95,8.61 -40.65,21.13 -32.5,-22.91 -50.16,5.35 -3.73,3.55 -27.5,-10.59 -3.42,-2.04 -6.36,-5.02 -10.27,-7.35l-46.1 -25.62c32.37,43.33 16.04,7.68 14.9,37.89 -91.25,-56.07 -79.57,-29.42 -96.76,-26.72 -37.38,5.87 -92.86,8.28 -136.29,52.57l-27.79 35.3z"/>
   <path class="fil7" d="M3146 784.4l10.43 31.62 39.92 15.22 13.97 14.57 12.24 7.83c226.77,29.54 207.46,-61.01 164.38,-95.88 -16.13,-13.06 -101.38,-14.89 -127.01,-11.56 -84.29,10.97 -25.38,32.69 -113.94,38.2z"/>
   <path class="fil7" d="M2554.88 819.45l-6.12 -35.64c-0.03,-0 -284.54,-121.9 -246.22,49.24 68.54,38.03 99.61,23.78 179.01,30.9 2.18,-2.48 4.97,-10.27 5.85,-7.99 0.87,2.25 4.58,-6.54 5.84,-7.87 23.9,-25.37 1.01,-26.33 61.64,-28.64z"/>
   <path class="fil4" d="M1157.61 895.53c-48.35,20.5 -15.97,-9.46 -35.27,33.83 59.09,65.45 28.87,-17.02 46.97,58.26 0.23,22.32 -1.61,34.49 3.73,56.48 6.96,28.68 4.87,15 16.72,29.51 62.07,-90.61 -58.84,-120.49 123.51,-122l1.73 125.27c28.76,-22.2 28.08,23.67 26.03,-103.83 3.67,-2.85 8.95,-5.69 11.63,-7.68l39.36 -36.01c-58.71,-89.65 -12.31,-58.34 -43.92,-116.06l-6.01 86.97 -184.49 -4.73z"/>
   <path class="fil2" d="M3724.96 1883.49l12.91 3.54c41.23,53.37 65.25,44.94 150.61,47.26 -13.2,-28.29 -17.24,-56.44 -18.32,-107.47l24.43 -5.31c-1.6,21.2 -6.39,15.91 15.16,15.12l15.33 13.05 15.68 14.53 11.86 15.97 14.39 30.04 -3 -19.21 -11.39 -10.83 -11.86 -15.97 -15.68 -14.53 -15.33 -13.05 -15.16 -15.12c-34.14,-44.14 -77.9,-94.63 -144.4,-107.75 -59.32,26.06 -33.42,-9.48 -68.32,34.39 -23.88,30.02 -20.72,49.29 -9.59,84.14l0.65 21.75 22.56 4.86 21.44 7.98 -7.41 4.19c-21.51,-66.93 -36.82,-65.6 18.16,-120.58 67.64,-10.07 112.36,25.44 90.88,96.44 -45.55,32.67 -26.88,24.88 -93.61,36.55z"/>
   <path class="fil4" d="M3500.87 1546.01l4.45 10.59 -4.45 -10.59zm171.42 286.29l0.65 21.75 22.56 4.86 21.44 7.98 20.93 20.15 -12.91 -3.54 -15.42 -12.41 7.41 -4.19 -21.44 -7.98 -22.56 -4.86 -0.65 -21.75c-11.13,-34.85 -14.29,-54.12 9.59,-84.14 34.9,-43.87 9,-8.33 68.32,-34.39l-51.9 -45.16c-31.68,-19.24 -28.78,-18.52 -60.12,-41 -47.66,-34.19 -69.67,-63.6 -111.58,-62.87 -1.12,0.02 -4.75,1.32 -7.06,2.16 16.31,31.36 125.79,236.44 152.75,265.4z"/>
   <path class="fil7" d="M2485.33 1422.54c-9.91,-63.56 -53.18,-103.69 -117.58,-110.49l-31.25 10.57 -2.54 137.83 137.49 0.77c17.27,-22.86 18.65,33.52 13.87,-38.67z"/>
   <path class="fil7" d="M2128.43 1385.96l14.59 -8.28c25.59,-41.42 74.28,-96.07 85.73,-141.94l-4.15 -33.21c-71.68,0.21 -107.76,22.58 -143.54,48.98 -5.71,75.59 -11.13,93.89 47.36,134.44z"/>
   <path class="fil5" d="M403.25 2026.02c52.82,-20.86 43.86,-16.97 113.61,-12.37l-5.53 391.13c-16.5,0.9 -50.36,4.24 -65.47,3.54 -74.61,-3.44 68.3,9.41 -28.76,-3.58l-26.04 -7.95c0.31,-66.28 -10.26,-312.94 12.2,-370.77zm-24.77 381.22l10.63 6.7 44.16 11.51 39.15 0.97 57.8 -18.76 -2.22 -395.12c-26.45,-18.72 -36.02,-16.9 -59.05,-32.91 -14.65,7.77 16.11,34.12 -33.8,3.04l-61.42 24.9 4.75 399.65z"/>
   <path class="fil2" d="M5456.69 2544.31c-14.92,121.32 -14.6,157.42 29.68,181.08 42.15,-22.47 43.86,-49.63 28.54,-180.92l-0.27 -72.73 -56.49 -16.41 -1.46 88.98z"/>
   <path class="fil0" d="M1629.76 1512.68l-1.41 190.12c47.19,-18 67.88,-36.42 85.35,-74.28l-0.44 -162.39c-56,10.74 -39.14,14.07 -83.51,46.55z"/>
   <path class="fil2" d="M575.54 253.72l-0.5 58.54c39.5,30.14 19.23,-6.4 25.82,46.46 -13.88,-9.72 -5.71,-28.73 -60.91,-46.36l-5.54 72.9c78.79,-4.65 74.67,0.73 144.93,19.64l-8.99 -162.91 -94.81 11.73z"/>
   <path class="fil7" d="M3242.24 1609.64c56.84,-38.66 50.22,-52.88 49.09,-134.18 -49.75,-43.85 -56.72,-48.87 -151.64,-54.27l102.55 188.45z"/>
   <path class="fil6" d="M3691.57 1045.87l11.93 64.84c48.98,15.46 66.41,14.22 111.86,-3.1 41.74,-135.74 -72.54,-151.68 -123.79,-61.74z"/>
   <path class="fil6" d="M3709.54 1871.08l15.42 12.41c66.73,-11.68 48.06,-3.88 93.61,-36.55 21.48,-71 -23.24,-106.51 -90.88,-96.44 -54.98,54.98 -39.66,53.65 -18.16,120.58z"/>
   <path class="fil4" d="M751.58 1075.35l41.41 -10.27 2.7 -107.44c121.85,-85.81 119.16,102.88 118.4,176.74l13.49 68.45c22.82,-42.25 19.16,-138.43 6.55,-195.38 -14.52,-65.61 -34.56,-90.22 -110.31,-100.57l-54.34 39.42 -17.9 129.07z"/>
   <path class="fil6" d="M3726.25 740.92c-48.2,52.5 -40.27,55.97 -17.93,120.06 146.02,34.86 165.89,-128.4 17.93,-120.06z"/>
   <path class="fil6" d="M2480.33 1523.98c34.84,-33.72 27.22,-64.23 5,-101.44 4.78,72.18 3.4,15.81 -13.87,38.67l-137.49 -0.77 2.54 -137.83 31.25 -10.57c-31.24,-25.16 -51.89,-20.75 -83.91,-0.19l33.31 5.6 -4.81 150.85c-44.39,22.95 -93.67,78.63 -109.04,125.14 139.46,-100.5 42.88,-107.01 284.19,-112.09l-7.16 42.63z"/>
   <polygon class="fil6" points="1977.33,1981.96 2092.91,1979.73 2086.28,1867.74 1979.37,1867.52 "/>
   <polygon class="fil6" points="2359.58,1979.77 2476.16,1981.9 2468.47,1866.89 2362,1869.59 "/>
   <path class="fil5" d="M5448.21 1206.09c-5.52,-45.2 68.94,-66.81 76.86,-12.65 7.24,49.44 -71.7,54.96 -76.86,12.65zm-58.13 19.48c-22.04,6.32 -19.17,-20.05 -13.04,33.67 -30.44,6.35 -18.04,5.06 -22.46,59.22 11.74,-11.85 36.84,-18.19 22.46,-59.22 18.93,-11.87 27.93,26.18 13.04,-33.67l19.73 -41.14 61.99 66.46c63.57,-11.63 44.08,-21.08 91.28,-66.82l29.42 58.32 8.77 65.75c4.5,3.34 9.65,6.84 10.72,11.87 10.09,47.59 8.72,-2.62 13.3,-3.36 -3.75,-13.48 -9.14,-34.4 -13.59,-45.19 -8.51,-20.66 -13.57,-21.69 -19.2,-29.06 -2.53,-56.33 -23.85,-77.43 -62.45,-104.72 -81.98,-14.51 -150.36,10.45 -139.98,87.9z"/>
   <polygon class="fil6" points="2168.17,1979.83 2285.06,1980.17 2277.72,1867.49 2171.53,1869.08 "/>
   <polygon class="fil6" points="2555.91,1981.95 2662.1,1976.49 2663.12,1867.91 2555.13,1871.71 "/>
   <polygon class="fil6" points="2749.59,1977.71 2852.59,1976.28 2856.22,1869.7 2744.89,1869.9 "/>
   <path class="fil4" d="M247.59 1450.52l-41.27 3.53c20.92,68.86 40.61,190.94 80.42,242.75 27.53,-36.42 7.99,-61.28 -8.79,-116.35 -13.78,-45.23 -24.19,-84.12 -30.36,-129.94z"/>
   <path class="fil8" d="M2106.45 986.27l18.74 -10.42 20.19 -12.73 43.55 -7.15 17.66 -14.67 14.69 -13.69 6.43 -17.86 -14.57 -12.56 -120.06 -0.31c-0.69,18.47 -3.42,42.17 -0.75,60.33 5.27,35.77 -0.94,7.2 14.12,29.07z"/>
   <path class="fil5" d="M4961.44 564.55c-86.91,8.39 -36.95,10.33 -53.74,44.38 11.42,8.17 -6.32,38.64 68.64,32.16 62.93,-5.44 32.75,-6.44 54.94,-32.16 -10.96,-20.91 11.53,-52.24 -69.85,-44.38z"/>
   <path class="fil4" d="M389.12 2413.95l44.16 11.51 13.68 261.85c16.7,-14.59 15.9,30.16 24.54,-52.45l0.94 -208.44 -39.15 -0.97 -44.16 -11.51 -10.63 -6.7 10.63 6.7z"/>
   <path class="fil5" d="M4409.83 608.93c20.67,23.06 13.81,37.88 71.93,32.57 57.75,-5.27 40,-14.31 48.95,-47.14 -0.58,-0.53 7.27,-36.84 -64.79,-29.75 -98.77,9.72 -33.66,15.66 -56.1,44.32z"/>
   <path class="fil8" d="M2124.36 1121.51l106.4 -10.78 4.34 -128.64 -20.36 -4.79c-15.49,91.9 -61.55,61.99 -90.38,144.2z"/>
   <path class="fil4" d="M4685.3 327.56c-3.35,3.34 -7.04,7.99 -9.07,10.94l-19.33 31.93c-34.49,56.2 33.9,-14.11 -15.3,20.5 -44.2,-10.32 -26.79,-47.17 -72.1,-71.62l8.34 85.72c49.68,33.49 44.95,24.53 116,17.77l-8.54 -95.24z"/>
   <path class="fil0" d="M3888.48 1934.29l68.56 2.44 9.97 -26.51 -14.39 -30.04 -11.86 -15.97 -15.68 -14.53 -15.33 -13.05c-21.54,0.79 -16.76,6.09 -15.16,-15.12l-24.43 5.31c1.08,51.03 5.12,79.19 18.32,107.47z"/>
   <path class="fil4" d="M4608.01 276.3c14.12,-17.39 -11.67,-37.78 31.04,-28.79 50.77,10.68 6.23,1.25 23.07,27.74l23.17 34.34c37.35,-109.28 -19.28,-105.89 -110.73,-89.47l-5.12 97.44 28.95 -28.4c3.98,-4.73 5.8,-8.17 9.61,-12.86z"/>
   <path class="fil4" d="M385.08 1418.11l-40.01 5.65 72.75 234.49c16.8,-19.68 47.65,66.39 -8.34,-122.68 -13.5,-45.6 -18.47,-72.11 -24.4,-117.47z"/>
   <path class="fil7" d="M2726.67 1634.88c-56.93,134.94 138.82,84.02 69.8,4.8 -25.18,-15.31 33.83,-13.9 -34.17,-14.44 -70.6,-0.56 -9.06,-1.4 -35.63,9.64z"/>
   <path class="fil11" d="M2853.91 1143.44l97.49 0.07c-11.25,-51.66 8.92,-97.53 -29.26,-100.51 12.68,80.14 10.99,64.94 -13.74,101.14l-4.76 -98.1 -49.27 -0.48 -0.45 97.88z"/>
   <path class="fil4" d="M435.16 1982.69c49.91,31.08 19.14,4.74 33.8,-3.04l-0.78 -176.09c-10.92,-41.84 -0.6,-9.33 -27.11,-30.48l-5.91 209.6z"/>
   <path class="fil11" d="M3369.62 1188.26l-24.33 39.05 -40.98 4.94c10.12,-28.39 11.3,-18.05 -21.78,-14.82 0,30.6 -7.08,25.4 21.78,14.82 10.84,13.98 1.82,6.26 21.31,23.65 1.4,1.25 23.76,18.9 24.05,19.12 24.32,18.71 22,18.41 52.71,32.27 -17.36,-38.71 -27.48,-64.8 -32.76,-119.03 30.7,-26.79 50.17,-35.75 109.86,-26.65 -56.21,-35.6 -85.28,-36.06 -109.86,26.65z"/>
   <path class="fil12" d="M5514.91 2544.48c15.32,131.29 13.61,158.45 -28.54,180.92 -44.28,-23.67 -44.6,-59.76 -29.68,-181.08 -42.04,54.28 -7.52,123.77 -6.87,195.51l75.07 0.19c-4.89,-67.94 32.89,-149.88 -9.98,-195.54z"/>
   <path class="fil2" d="M4751.95 263.49c46.82,-70.16 72.27,40.5 75.99,32.89 1.21,-2.47 4.64,8.1 10.63,11.36l-11.13 -85.11c-100.06,-8.61 -99.99,-14.06 -103.23,85.76l15.9 -23.22c2.37,-3.73 9.59,-18.34 11.83,-21.69z"/>
   <path class="fil7" d="M5525.07 1193.44c-7.93,-54.16 -82.38,-32.54 -76.86,12.65 5.16,42.31 84.1,36.79 76.86,-12.65z"/>
   <path class="fil10" d="M1748.15 946l41.97 -0.65 65.08 -14.65c-23.69,-24.33 9.37,-3.43 -25.33,-18.97 -0.28,-0.13 -25.83,-7.11 -27.68,-7.63 -55.53,-7.85 -28.25,-12.96 -74.8,10.69 4.26,56.43 -3.63,5.75 20.76,31.2z"/>
   <path class="fil4" d="M2555.13 1871.71l108 -3.8 -1.02 108.58 -106.19 5.46 -0.78 -110.24zm107.04 108.47c17.91,-38.26 13.53,-69.52 8.62,-111.32 -56.64,-19.17 -64.6,-17.08 -122.98,-2.1 -9.95,76.61 -9.19,67.7 7.99,119.75l106.37 -6.33z"/>
   <path class="fil2" d="M4869.43 306.85c47.92,-55.26 0.44,-77.08 61.92,-66.59 44.67,7.63 10.49,0.91 29.64,31.93l19.91 36.28c-2.52,-65.81 -3.86,-47.31 -16.89,-89.19l-87.33 2.42 -7.25 85.16z"/>
   <path class="fil13" d="M3054.66 1373.27l-35.69 -4.22c-1.1,13.81 -5.91,59.53 -1.92,71.24 15.82,46.38 -4.3,17.68 39.16,30l-1.56 -97.02z"/>
   <path class="fil13" d="M2867.67 1371.86l-39.05 -2.97c-0.73,12.22 -4.7,45.81 -3.1,56.45 6.51,43.34 4.61,24.54 24.62,45.79 18.76,-28.3 9.64,5.35 17.31,-46.24 0.67,-4.52 -0.11,-43.55 0.22,-53.03z"/>
   <path class="fil13" d="M2930.76 1371.84l-38.95 0.47c-0.14,10.87 -2.16,44.05 -1.14,52.48 6.18,50.58 0.45,20.11 17.72,45.56 15.4,-16.66 27.28,23.82 22.36,-98.51z"/>
   <path class="fil13" d="M2106.45 986.27l18.74 -10.42c24.66,2.13 20.19,9.01 20.19,-12.73l-20.19 12.73 -18.74 10.42c-15.06,-21.87 -8.85,6.7 -14.12,-29.07 -2.67,-18.16 0.06,-41.86 0.75,-60.33l120.06 0.31 14.57 12.56 -6.43 17.86 -14.69 13.69 -17.66 14.67 17.66 -14.67 22.92 5.97 -8.23 -19.66 20.49 -1.51 -14.06 -16.35 -14.57 -12.56c-48.66,-23.55 -75.01,-18.81 -131.57,-9.57l-2.17 114.94 27.04 -16.28z"/>
   <path class="fil13" d="M2995.2 1372.18l-38.1 -2.81c-10.28,94.24 -1.92,76.68 24.12,99.92 21.42,-38.55 11.24,-26.14 13.98,-97.12z"/>
   <path class="fil2" d="M4803.61 383.66c-17.41,18.99 -11.42,10.55 -46.06,16.75 -14.13,-24.66 -1.59,-35.68 -30.97,-70.45 -2.39,96.16 6.93,93.65 104.25,85.34l-15.77 -51.94c-34.25,55.36 32.95,-28.12 -11.45,20.31z"/>
   <path class="fil2" d="M4903.06 402.08c-1.49,-2.72 -2.72,-6.91 -3.33,-8.69l-30.78 -62.66 7.84 84.1c94.39,9.74 104.4,10.56 102.36,-84.83 -18.47,22.17 -8.95,-3.78 -18.81,31.93 -5.26,19.06 0.39,26.41 2.33,39.04l-59.6 1.1z"/>
   <path class="fil4" d="M2744.89 1869.9l111.33 -0.19 -3.63 106.58 -102.99 1.42 -4.7 -107.81zm105.32 108.2c23.81,-40.43 16.97,-59.91 11.22,-113.02 -54.52,-11.86 -69.93,-14.81 -120.46,5.2 -8.01,69.27 -6.51,76.15 7.68,114.12l101.57 -6.29z"/>
   <polygon class="fil13" points="2954.48,1139.13 2992.52,1150.34 2987.08,1043.58 2955.3,1060.44 "/>
   <path class="fil9" d="M4907.71 608.93c16.79,-34.05 -33.17,-35.99 53.74,-44.38 81.37,-7.86 58.89,23.48 69.85,44.38 -22.19,25.72 7.99,26.72 -54.94,32.16 -74.96,6.48 -57.22,-23.99 -68.64,-32.16zm2.53 -36.59l-3.53 64.57c28.49,11.89 115.06,34.61 131.25,-16.04 18.34,-57.38 -43.1,-73.55 -90.42,-65.31 -42.61,7.41 -30.91,13.16 -37.29,16.78z"/>
   <path class="fil9" d="M4481.76 641.51c-58.12,5.3 -51.26,-9.51 -71.93,-32.57 22.43,-28.66 -42.67,-34.59 56.1,-44.32 72.06,-7.09 64.2,29.22 64.79,29.75 -8.95,32.83 8.8,41.87 -48.95,47.14zm-67.82 -70.89l-5.3 70.67c204.86,47.51 151.09,-141.05 5.3,-70.67z"/>
   <polygon class="fil13" points="2830.53,1143.52 2853.91,1143.44 2854.36,1045.56 2826.44,1060.47 "/>
   <path class="fil13" d="M2922.14 1043l-18.51 3.04 4.76 98.1c24.74,-36.2 26.42,-20.99 13.74,-101.14z"/>
   <path class="fil13" d="M3053.91 1045.31l-35.48 -2.6c11.18,54.39 -11.42,20.08 17.61,43.02 22.03,-19.26 14.14,-0.44 17.87,-40.42z"/>
   <path class="fil6" d="M3062.35 1146.22c-25.28,-29.92 -6.45,-14.92 -37.63,-32.38 -3.86,57.9 -14.78,27.95 37.63,32.38z"/>
  </g>
 </g>
</svg>
