<svg height="480pt" viewBox="-4 0 480 480.02517" width="480pt" xmlns="http://www.w3.org/2000/svg"><path d="m336.011719 240c.167969-13.515625-2.5625-26.90625-8-39.28125-1.96875-3.738281-6.507813-5.300781-10.363281-3.5625-3.851563 1.734375-5.691407 6.171875-4.195313 10.125 4.488281 10.3125 6.726563 21.46875 6.558594 32.71875.007812 36.726562-24.996094 68.742188-60.632813 77.632812-35.632812 8.890626-72.746094-7.621093-89.996094-40.046874-17.246093-32.425782-10.203124-72.429688 17.085938-97.011719s67.808594-27.425781 98.265625-6.894531c3.664063 2.472656 8.644531 1.507812 11.117187-2.160157 2.476563-3.667969 1.507813-8.644531-2.160156-11.121093-36.539062-24.640626-85.164062-21.242188-117.914062 8.25-32.753906 29.488281-41.21875 77.492187-20.53125 116.40625 20.691406 38.914062 65.21875 58.742187 107.984375 48.085937 42.765625-10.660156 72.777343-49.066406 72.78125-93.140625zm0 0"/><path d="m282.332031 202.320312-50.320312 50.398438-26.320313-26.398438c-3.136718-3.136718-8.222656-3.136718-11.359375 0-3.136719 3.136719-3.136719 8.222657 0 11.359376l32 32c1.503907 1.515624 3.546875 2.367187 5.679688 2.367187 2.132812 0 4.179687-.851563 5.679687-2.367187l56-56c3.136719-3.136719 3.136719-8.222657 0-11.359376-3.136718-3.136718-8.222656-3.136718-11.359375 0zm0 0"/><path d="m459.292969 436.71875-22.558594 22.5625c-3.003906 3.003906-7.074219 4.691406-11.320313 4.691406-4.246093 0-8.320312-1.6875-11.320312-4.691406l-50.960938-50.882812c-3.003906-3-4.691406-7.070313-4.691406-11.320313 0-4.246094 1.6875-8.316406 4.691406-11.316406l22.640626-22.640625c6.351562-6.003906 16.285156-6.003906 22.640624 0l50.878907 50.957031c3.136719 3.140625 8.222656 3.140625 11.359375 0 3.136718-3.136719 3.136718-8.222656 0-11.359375l-50.960938-50.71875c-10.449218-9.9375-26.160156-11.886719-38.71875-4.800781l-35.121094-35.199219c37.144532-54.601562 26.652344-128.496094-24.21875-170.601562-50.875-42.105469-125.429687-38.597657-172.125 8.097656-46.695312 46.695312-50.203124 121.25-8.097656 172.121094 42.105469 50.875 116 61.367187 170.601563 24.222656l35.039062 35.039062c-2.875 4.847656-4.417969 10.367188-4.476562 16-.101563 8.570313 3.308593 16.808594 9.4375 22.800782l50.882812 50.960937c6 6.007813 14.144531 9.382813 22.636719 9.382813 8.496094 0 16.640625-3.375 22.640625-9.382813l22.480469-22.640625c3.101562-3.121094 3.101562-8.160156 0-11.28125-1.5-1.511719-3.546875-2.363281-5.679688-2.363281-2.132812 0-4.179687.851562-5.679687 2.363281zm-331.28125-196.71875c-.097657-48.953125 31.609375-92.296875 78.292969-107.027344 46.683593-14.734375 97.523437 2.558594 125.546874 42.699219 28.019532 40.140625 26.722657 93.824219-3.199218 132.566406-5.933594 7.617188-12.785156 14.46875-20.398438 20.402344-33.800781 25.972656-79.417968 30.503906-117.667968 11.691406-38.25-18.808593-62.507813-57.703125-62.574219-100.332031zm197.519531 94.960938c3.304688-2.984376 6.457031-6.136719 9.441406-9.441407l.960938-.960937 32.878906 32.960937-11.28125 11.28125-32.957031-32.800781zm0 0"/><path d="m104.011719 304h-88v-288h104v72c0 4.417969 3.582031 8 8 8h64c4.417969 0 8-3.582031 8-8v-72h104v88c0 4.417969 3.582031 8 8 8s8-3.582031 8-8v-96c0-4.417969-3.582031-8-8-8h-304c-4.417969 0-8.0000002 3.582031-8.0000002 8v304c0 4.417969 3.5820312 8 8.0000002 8h96c4.417969 0 8-3.582031 8-8s-3.582031-8-8-8zm80-224h-48v-64h48zm0 0"/><path d="m96.011719 200c0-4.417969-3.582031-8-8-8h-48c-4.417969 0-8 3.582031-8 8s3.582031 8 8 8h48c4.417969 0 8-3.582031 8-8zm0 0"/><path d="m40.011719 224c-4.417969 0-8 3.582031-8 8s3.582031 8 8 8h32c4.417969 0 8-3.582031 8-8s-3.582031-8-8-8zm0 0"/></svg>