<?xml version="1.0" encoding="UTF-8"?>
<!DOCTYPE svg PUBLIC "-//W3C//DTD SVG 1.1//EN" "http://www.w3.org/Graphics/SVG/1.1/DTD/svg11.dtd">
<!-- Creator: CorelDRAW 2019 (64-Bit) -->
<svg xmlns="http://www.w3.org/2000/svg" xml:space="preserve" width="30.3763mm" height="7.5204mm" version="1.1" style="shape-rendering:geometricPrecision; text-rendering:geometricPrecision; image-rendering:optimizeQuality; fill-rule:evenodd; clip-rule:evenodd"
viewBox="0 0 1229.51 304.39"
 xmlns:xlink="http://www.w3.org/1999/xlink">
 <defs>
  <style type="text/css">
   <![CDATA[
    .fil0 {fill:#FEFEFE}
    .fil1 {fill:#FEFEFE;fill-rule:nonzero}
   ]]>
  </style>
 </defs>
 <g id="Capa_x0020_1">
  <metadata id="CorelCorpID_0Corel-Layer"/>
  <g id="_2870138183104">
   <path class="fil0" d="M274.75 114.85c0,-22.98 -3.58,-42.05 7.4,-53.05 20.39,-20.42 47,-4.02 47,14.77 0,25.35 6.78,64.48 -26.19,64.48 -13.88,0 -28.21,-12.73 -28.21,-26.2zm-16.12 34.25c0,8.29 14.93,10.3 16.12,-4.03 9.01,6.03 14.41,12.09 30.22,12.09 24.02,0 42.31,-21.25 42.31,-46.34 0,-25.42 3.05,-41.37 -10.82,-59.71 -4.96,-6.56 -19.14,-14.84 -29.48,-14.84 -16.73,0 -22.38,5.48 -32.24,12.09 0,-8.73 -0.07,-17.48 0.02,-26.21 0.2,-21.17 2.88,-22.11 -12.76,-22.15l-0.8 0 -0.83 0 -0.86 0 -0.89 0 0 149.1z"/>
   <path class="fil0" d="M673.71 80.6c0,-14.9 11.74,-28.21 26.19,-28.21 14.53,0 28.21,10.15 28.21,24.18l0 10.07 -54.4 0 0 -6.04zm-16.12 -4.03c0,24.77 -3.4,41.13 6.08,56.38 14.18,22.8 44.88,26.16 70.48,20.19l0 -14.11c-36.8,0 -60.45,3.62 -60.45,-36.27 20.22,0 52.11,2.27 70.52,-2.01 8.05,-34.54 -11.1,-64.48 -44.33,-64.48 -21.09,0 -42.31,18.93 -42.31,40.3z"/>
   <path class="fil0" d="M476.25 112.84c0,-22.71 -6.29,-60.45 26.19,-60.45 34.43,0 28.21,36.75 28.21,60.45 0,35.5 -54.4,38.92 -54.4,0zm-18.14 -20.15c0,18.17 0.04,33.74 9.71,46.71 24.72,33.2 78.95,15.16 78.95,-22.53l0 -40.3c0,-47.9 -88.66,-64.76 -88.66,16.12z"/>
   <path class="fil0" d="M581.02 22.16l0 16.12 -16.12 2.01c0,15.19 -1.59,14.11 16.12,14.11 0,70.85 -10.23,100.75 46.34,100.75 5.44,0 5.56,-0.96 10.07,-2.02 0,-17.29 -1.23,-14.11 -18.51,-15.75 -26.95,-2.55 -19.78,-6.05 -19.78,-82.99 39.52,0 38.28,3.07 38.28,-10.07 0,-9.63 -13.49,-6.04 -38.28,-6.04l0 -22.17c-2.47,-0.57 -18.14,-6.54 -18.14,6.05z"/>
   <path class="fil0" d="M365.42 44.33c0,11.82 -0.52,10.07 20.15,10.07l0 84.63 -20.15 0 0 14.11c17.53,4.08 38.19,2.02 56.42,2.02 7.63,0 6.04,-4.7 6.04,-16.12l-26.19 0 0 -60.45c0,-5.43 2.87,-5.72 5.91,-8.19 2.48,-2.01 5.03,-3.98 7.88,-6.23 12.28,-9.7 15.45,-9.76 28.52,-9.76l0 -16.12c-36.23,0 -24.32,11.31 -42.31,16.12 0,-18.7 -2.42,-16.12 -30.23,-16.12 -4.64,0 -6.04,1.4 -6.04,6.04z"/>
   <path class="fil0" d="M768.41 84.63c0,20.15 -1.87,40.55 10.59,55.9 20.23,24.93 54.78,17.82 65.98,2.53 -2.75,-11.81 -2.42,-4.39 -8.06,-12.09 -6.21,3.29 -14.07,10.07 -22.16,10.07 -35.28,0 -28.21,-35.43 -28.21,-64.48 0,-13.02 13.35,-24.18 26.19,-24.18 16.05,0 26.56,19.26 32.24,-2.02 -19,-25.92 -76.57,-16.47 -76.57,34.25z"/>
   <path class="fil0" d="M141.77 92.69l0 0.65c0.05,13.4 1.72,11.82 19.01,18.63 9.2,3.62 14.83,6.35 24.18,10.07 8.8,3.5 13.94,6.01 22.73,9.51 17.31,6.88 20.72,12.74 20.72,-2.59 0,-8.77 -17.57,-11.73 -32.19,-18.19 -10.05,-4.45 -25.05,-11.43 -36.32,-14.05l53.56 -23c12.76,-4.91 14.94,-3.88 14.94,-15.28 0,-11.78 -25.35,3.74 -43.45,10.95 -8.35,3.33 -15.45,5.93 -22.99,9.25 -9.12,4.01 -20.2,6.03 -20.2,14.05z"/>
   <path class="fil0" d="M1004.15 58.43c0,12.9 6.31,12.23 30.51,21.88l35.98 14.39 -48.92 21.6c-7.14,3.11 -9.46,4.72 -17.57,6.61 0,22.73 -2.27,17.24 37.71,1.44l48.93 -21.59c-0.44,-19.63 -5.24,-18.31 -38.86,-31.66 -9.3,-3.7 -17.32,-6.89 -25.67,-10.6 -13.04,-5.78 -22.11,-11.78 -22.11,-2.07z"/>
   <path class="fil0" d="M911.47 165.22l14.11 0c1.48,-6.33 5.52,-14.82 7.77,-20.44l51.81 -127.54c5.38,-13.24 11.54,-17.25 -3.17,-17.25 -8.08,0 -14.37,25.05 -20.2,38.23 -7.35,16.63 -49.47,116.71 -50.32,126.99z"/>
  </g>
  <path class="fil1" d="M-0 284.44l0 -71.8 24.73 0c5.58,0 9.84,0.33 12.78,1.02 4.11,0.95 7.62,2.67 10.53,5.14 3.8,3.21 6.62,7.29 8.49,12.27 1.89,4.98 2.83,10.68 2.83,17.08 0,5.45 -0.64,10.28 -1.91,14.49 -1.27,4.21 -2.91,7.7 -4.9,10.46 -2,2.76 -4.18,4.93 -6.55,6.5 -2.36,1.59 -5.22,2.79 -8.56,3.61 -3.36,0.82 -7.2,1.22 -11.55,1.22l-25.9 0zm9.52 -8.42l15.31 0c4.73,0 8.44,-0.43 11.13,-1.32 2.69,-0.89 4.83,-2.12 6.44,-3.73 2.24,-2.25 3.99,-5.3 5.25,-9.11 1.25,-3.81 1.89,-8.42 1.89,-13.85 0,-7.52 -1.24,-13.3 -3.7,-17.35 -2.46,-4.04 -5.45,-6.75 -8.97,-8.12 -2.54,-0.98 -6.63,-1.47 -12.28,-1.47l-15.06 0 0 54.95z"/>
  <path id="1" class="fil1" d="M71.31 222.67l0 -10.03 8.82 0 0 10.03 -8.82 0zm0 61.77l0 -52.04 8.82 0 0 52.04 -8.82 0z"/>
  <path id="2" class="fil1" d="M107.81 284.44l-19.64 -52.04 9.44 0 11.13 31.17c1.2,3.36 2.32,6.85 3.34,10.48 0.79,-2.74 1.87,-6.03 3.29,-9.9l11.57 -31.75 9.05 0 -19.7 52.04 -8.49 0z"/>
  <polygon id="3" class="fil1" points="138.8,284.44 138.8,274.41 148.83,274.41 148.83,284.44 "/>
  <path id="4" class="fil1" d="M190.01 261.38l8.92 -0.8c0.42,3.61 1.4,6.57 2.96,8.89 1.55,2.31 3.96,4.18 7.22,5.62 3.26,1.42 6.94,2.14 11.01,2.14 3.63,0 6.82,-0.53 9.59,-1.62 2.78,-1.09 4.83,-2.57 6.18,-4.46 1.35,-1.89 2.04,-3.94 2.04,-6.15 0,-2.24 -0.65,-4.2 -1.96,-5.89 -1.3,-1.67 -3.46,-3.07 -6.46,-4.23 -1.92,-0.74 -6.18,-1.91 -12.79,-3.49 -6.6,-1.59 -11.22,-3.08 -13.85,-4.48 -3.43,-1.81 -5.97,-4.04 -7.64,-6.7 -1.69,-2.66 -2.52,-5.65 -2.52,-8.94 0,-3.65 1.03,-7.04 3.09,-10.18 2.06,-3.16 5.05,-5.55 9.01,-7.19 3.94,-1.64 8.34,-2.45 13.17,-2.45 5.31,0 10.01,0.85 14.07,2.57 4.06,1.71 7.19,4.23 9.38,7.57 2.19,3.33 3.36,7.1 3.53,11.31l-9.13 0.7c-0.48,-4.53 -2.14,-7.96 -4.96,-10.26 -2.83,-2.32 -7,-3.47 -12.52,-3.47 -5.75,0 -9.94,1.05 -12.57,3.16 -2.62,2.1 -3.94,4.65 -3.94,7.62 0,2.57 0.93,4.7 2.79,6.37 1.84,1.66 6.6,3.38 14.32,5.11 7.72,1.76 13.02,3.28 15.89,4.58 4.16,1.92 7.25,4.34 9.24,7.3 1.99,2.94 2.97,6.33 2.97,10.18 0,3.82 -1.08,7.4 -3.27,10.78 -2.19,3.38 -5.31,6 -9.41,7.87 -4.1,1.87 -8.69,2.8 -13.82,2.8 -6.48,0 -11.92,-0.95 -16.29,-2.84 -4.4,-1.89 -7.82,-4.73 -10.31,-8.54 -2.51,-3.79 -3.81,-8.09 -3.94,-12.88z"/>
  <path id="5" class="fil1" d="M294.39 267.59l9.13 1.2c-1.42,5.3 -4.08,9.43 -7.96,12.35 -3.88,2.92 -8.82,4.4 -14.86,4.4 -7.59,0 -13.6,-2.34 -18.05,-7.02 -4.44,-4.66 -6.67,-11.23 -6.67,-19.67 0,-8.73 2.24,-15.51 6.74,-20.32 4.49,-4.83 10.33,-7.24 17.5,-7.24 6.93,0 12.6,2.36 17,7.08 4.4,4.73 6.6,11.38 6.6,19.96 0,0.52 -0.02,1.3 -0.05,2.34l-38.76 0c0.34,5.7 1.94,10.07 4.85,13.1 2.89,3.02 6.52,4.55 10.84,4.55 3.23,0 5.99,-0.85 8.26,-2.56 2.29,-1.7 4.1,-4.43 5.43,-8.17zm-28.88 -14.14l28.98 0c-0.38,-4.38 -1.51,-7.65 -3.33,-9.84 -2.79,-3.39 -6.43,-5.1 -10.9,-5.1 -4.04,0 -7.44,1.35 -10.2,4.06 -2.74,2.71 -4.26,6.33 -4.56,10.88z"/>
  <path id="6" class="fil1" d="M314.56 284.44l0 -52.04 7.92 0 0 7.97c2.02,-3.7 3.9,-6.14 5.62,-7.31 1.72,-1.19 3.61,-1.77 5.67,-1.77 2.97,0 6,0.93 9.07,2.79l-3.14 8.14c-2.14,-1.2 -4.28,-1.81 -6.42,-1.81 -1.92,0 -3.64,0.59 -5.16,1.74 -1.52,1.15 -2.61,2.76 -3.26,4.81 -0.99,3.12 -1.47,6.55 -1.47,10.28l0 27.19 -8.82 0z"/>
  <path id="7" class="fil1" d="M362.27 284.44l-19.64 -52.04 9.44 0 11.13 31.17c1.2,3.36 2.32,6.85 3.34,10.48 0.79,-2.74 1.87,-6.03 3.29,-9.9l11.57 -31.75 9.05 0 -19.7 52.04 -8.49 0z"/>
  <path id="8" class="fil1" d="M398.19 222.67l0 -10.03 8.82 0 0 10.03 -8.82 0zm0 61.77l0 -52.04 8.82 0 0 52.04 -8.82 0z"/>
  <path id="9" class="fil1" d="M454.46 265.39l8.63 1.2c-0.95,5.93 -3.36,10.56 -7.25,13.92 -3.89,3.36 -8.69,5.03 -14.36,5.03 -7.1,0 -12.82,-2.32 -17.13,-6.97 -4.33,-4.65 -6.48,-11.3 -6.48,-19.95 0,-5.62 0.93,-10.51 2.79,-14.73 1.85,-4.19 4.68,-7.35 8.49,-9.44 3.79,-2.1 7.92,-3.16 12.4,-3.16 5.63,0 10.26,1.42 13.84,4.28 3.59,2.86 5.9,6.92 6.9,12.17l-8.52 1.3c-0.82,-3.49 -2.25,-6.12 -4.34,-7.89 -2.07,-1.76 -4.58,-2.64 -7.52,-2.64 -4.44,0 -8.05,1.59 -10.84,4.76 -2.78,3.19 -4.16,8.21 -4.16,15.09 0,6.99 1.34,12.05 4.01,15.21 2.69,3.16 6.18,4.75 10.48,4.75 3.48,0 6.37,-1.05 8.67,-3.18 2.32,-2.1 3.8,-5.36 4.41,-9.76z"/>
  <path id="10" class="fil1" d="M470.6 222.67l0 -10.03 8.82 0 0 10.03 -8.82 0zm0 61.77l0 -52.04 8.82 0 0 52.04 -8.82 0z"/>
  <path id="11" class="fil1" d="M489.58 258.42c0,-9.61 2.67,-16.73 8.04,-21.36 4.46,-3.84 9.92,-5.76 16.36,-5.76 7.14,0 12.98,2.34 17.53,7.02 4.53,4.66 6.8,11.13 6.8,19.37 0,6.69 -1,11.94 -3.01,15.76 -2,3.83 -4.93,6.8 -8.77,8.92 -3.83,2.12 -8.02,3.18 -12.55,3.18 -7.29,0 -13.17,-2.32 -17.66,-6.99 -4.5,-4.66 -6.74,-11.38 -6.74,-20.14zm9.02 0.02c0,6.65 1.45,11.63 4.36,14.92 2.92,3.31 6.59,4.97 11.01,4.97 4.38,0 8.02,-1.66 10.94,-4.98 2.91,-3.32 4.36,-8.39 4.36,-15.19 0,-6.42 -1.47,-11.28 -4.4,-14.57 -2.92,-3.31 -6.57,-4.97 -10.91,-4.97 -4.43,0 -8.09,1.64 -11.01,4.93 -2.91,3.29 -4.36,8.26 -4.36,14.89z"/>
  <polygon id="12" class="fil1" points="577.81,284.44 577.81,212.64 629.65,212.64 629.65,221.07 587.34,221.07 587.34,243.13 626.95,243.13 626.95,251.55 587.34,251.55 587.34,276.02 631.36,276.02 631.36,284.44 "/>
  <path id="13" class="fil1" d="M676.53 304.39l0 -25.54c-1.37,1.92 -3.29,3.51 -5.75,4.78 -2.46,1.27 -5.08,1.91 -7.86,1.91 -6.17,0 -11.47,-2.46 -15.93,-7.39 -4.44,-4.91 -6.67,-11.67 -6.67,-20.22 0,-5.21 0.9,-9.89 2.71,-14.04 1.82,-4.13 4.45,-7.27 7.89,-9.39 3.44,-2.14 7.22,-3.21 11.33,-3.21 6.43,0 11.48,2.69 15.17,8.09l0 -6.99 7.92 0 0 72 -8.82 0zm-27.18 -46.13c0,6.69 1.4,11.7 4.21,15.04 2.8,3.34 6.16,5.01 10.09,5.01 3.76,0 6.98,-1.59 9.71,-4.76 2.7,-3.19 4.06,-8.02 4.06,-14.51 0,-6.92 -1.44,-12.11 -4.29,-15.61 -2.86,-3.49 -6.2,-5.23 -10.06,-5.23 -3.82,0 -7.07,1.62 -9.73,4.87 -2.66,3.24 -3.99,8.31 -3.99,15.19z"/>
  <path id="14" class="fil1" d="M733.15 284.44l0 -7.74c-4.04,5.9 -9.52,8.84 -16.46,8.84 -3.06,0 -5.91,-0.59 -8.57,-1.76 -2.66,-1.19 -4.63,-2.66 -5.91,-4.43 -1.29,-1.79 -2.19,-3.96 -2.71,-6.54 -0.35,-1.74 -0.53,-4.48 -0.53,-8.22l0 -32.21 8.82 0 0 28.8c0,4.59 0.18,7.7 0.53,9.29 0.55,2.32 1.72,4.13 3.53,5.45 1.79,1.32 3.99,1.99 6.63,1.99 2.64,0 5.12,-0.67 7.42,-2.02 2.31,-1.35 3.95,-3.21 4.91,-5.53 0.96,-2.32 1.44,-5.72 1.44,-10.14l0 -27.83 8.82 0 0 52.04 -7.93 0z"/>
  <path id="15" class="fil1" d="M754.93 222.67l0 -10.03 8.82 0 0 10.03 -8.82 0zm0 61.77l0 -52.04 8.82 0 0 52.04 -8.82 0z"/>
  <path id="16" class="fil1" d="M777.2 304.39l0 -72 8.02 0 0 6.84c1.89,-2.64 4.03,-4.63 6.42,-5.95 2.37,-1.32 5.26,-1.99 8.65,-1.99 4.45,0 8.36,1.14 11.75,3.42 3.39,2.27 5.95,5.5 7.69,9.65 1.72,4.16 2.59,8.71 2.59,13.67 0,5.3 -0.95,10.08 -2.86,14.34 -1.9,4.25 -4.68,7.5 -8.32,9.77 -3.63,2.26 -7.45,3.4 -11.46,3.4 -2.94,0 -5.58,-0.62 -7.9,-1.86 -2.34,-1.23 -4.25,-2.79 -5.75,-4.68l0 25.39 -8.82 0zm8.02 -45.66c0,6.67 1.35,11.6 4.04,14.79 2.71,3.19 5.98,4.8 9.83,4.8 3.91,0 7.25,-1.66 10.03,-4.97 2.79,-3.31 4.18,-8.42 4.18,-15.36 0,-6.62 -1.36,-11.56 -4.08,-14.86 -2.72,-3.29 -5.97,-4.93 -9.74,-4.93 -3.74,0 -7.05,1.76 -9.93,5.25 -2.89,3.51 -4.33,8.59 -4.33,15.28z"/>
  <path id="17" class="fil1" d="M829.67 258.42c0,-9.61 2.67,-16.73 8.04,-21.36 4.46,-3.84 9.92,-5.76 16.36,-5.76 7.14,0 12.98,2.34 17.53,7.02 4.53,4.66 6.8,11.13 6.8,19.37 0,6.69 -1,11.94 -3.01,15.76 -2,3.83 -4.93,6.8 -8.77,8.92 -3.83,2.12 -8.02,3.18 -12.55,3.18 -7.29,0 -13.17,-2.32 -17.66,-6.99 -4.5,-4.66 -6.74,-11.38 -6.74,-20.14zm9.02 0.02c0,6.65 1.45,11.63 4.36,14.92 2.92,3.31 6.59,4.97 11.01,4.97 4.38,0 8.02,-1.66 10.94,-4.98 2.91,-3.32 4.36,-8.39 4.36,-15.19 0,-6.42 -1.47,-11.28 -4.4,-14.57 -2.92,-3.31 -6.57,-4.97 -10.91,-4.97 -4.43,0 -8.09,1.64 -11.01,4.93 -2.91,3.29 -4.36,8.26 -4.36,14.89z"/>
  <path id="18" class="fil1" d="M917.5 284.44l0 -71.8 14.24 0 16.98 50.82c1.57,4.73 2.71,8.27 3.42,10.63 0.82,-2.61 2.11,-6.45 3.85,-11.52l17.28 -49.94 12.72 0 0 71.8 -9.13 0 0 -60.07 -20.96 60.07 -8.56 0 -20.72 -61.17 0 61.17 -9.12 0z"/>
  <path id="19" class="fil1" d="M1089.49 284.44l0 -6.6c-3.29,5.13 -8.14,7.71 -14.54,7.71 -4.14,0 -7.95,-1.14 -11.41,-3.43 -3.48,-2.27 -6.17,-5.46 -8.09,-9.54 -1.91,-4.09 -2.86,-8.79 -2.86,-14.1 0,-5.18 0.87,-9.88 2.59,-14.11 1.74,-4.21 4.33,-7.46 7.79,-9.69 3.44,-2.26 7.32,-3.38 11.58,-3.38 3.14,0 5.93,0.67 8.37,1.99 2.44,1.32 4.43,3.06 5.97,5.18l0 -25.82 8.82 0 0 71.8 -8.22 0zm-27.88 -25.95c0,6.65 1.4,11.61 4.23,14.91 2.81,3.29 6.13,4.93 9.96,4.93 3.86,0 7.14,-1.57 9.84,-4.72 2.69,-3.14 4.04,-7.94 4.04,-14.39 0,-7.08 -1.37,-12.3 -4.13,-15.62 -2.74,-3.33 -6.13,-4.98 -10.16,-4.98 -3.93,0 -7.2,1.59 -9.84,4.78 -2.63,3.19 -3.95,8.22 -3.95,15.09z"/>
  <path id="20" class="fil1" d="M1111.66 222.67l0 -10.03 8.82 0 0 10.03 -8.82 0zm0 61.77l0 -52.04 8.82 0 0 52.04 -8.82 0z"/>
  <path id="21" class="fil1" d="M1167.93 265.39l8.63 1.2c-0.95,5.93 -3.36,10.56 -7.25,13.92 -3.89,3.36 -8.69,5.03 -14.36,5.03 -7.1,0 -12.82,-2.32 -17.13,-6.97 -4.33,-4.65 -6.48,-11.3 -6.48,-19.95 0,-5.62 0.93,-10.51 2.79,-14.73 1.85,-4.19 4.68,-7.35 8.49,-9.44 3.79,-2.1 7.92,-3.16 12.4,-3.16 5.63,0 10.26,1.42 13.84,4.28 3.59,2.86 5.9,6.92 6.9,12.17l-8.52 1.3c-0.82,-3.49 -2.25,-6.12 -4.34,-7.89 -2.07,-1.76 -4.58,-2.64 -7.52,-2.64 -4.44,0 -8.05,1.59 -10.84,4.76 -2.78,3.19 -4.16,8.21 -4.16,15.09 0,6.99 1.34,12.05 4.01,15.21 2.69,3.16 6.18,4.75 10.48,4.75 3.48,0 6.37,-1.05 8.67,-3.18 2.32,-2.1 3.8,-5.36 4.41,-9.76z"/>
  <path id="22" class="fil1" d="M1180.77 258.42c0,-9.61 2.67,-16.73 8.04,-21.36 4.46,-3.84 9.92,-5.76 16.36,-5.76 7.14,0 12.98,2.34 17.53,7.02 4.53,4.66 6.8,11.13 6.8,19.37 0,6.69 -1,11.94 -3.01,15.76 -2,3.83 -4.93,6.8 -8.77,8.92 -3.83,2.12 -8.02,3.18 -12.55,3.18 -7.29,0 -13.17,-2.32 -17.66,-6.99 -4.5,-4.66 -6.74,-11.38 -6.74,-20.14zm9.02 0.02c0,6.65 1.45,11.63 4.36,14.92 2.92,3.31 6.59,4.97 11.01,4.97 4.38,0 8.02,-1.66 10.94,-4.98 2.91,-3.32 4.36,-8.39 4.36,-15.19 0,-6.42 -1.47,-11.28 -4.4,-14.57 -2.92,-3.31 -6.57,-4.97 -10.91,-4.97 -4.43,0 -8.09,1.64 -11.01,4.93 -2.91,3.29 -4.36,8.26 -4.36,14.89z"/>
  <path id="23" class="fil1" d="M1035.63 267.59l9.13 1.2c-1.42,5.3 -4.08,9.43 -7.96,12.35 -3.88,2.92 -8.82,4.4 -14.86,4.4 -7.59,0 -13.6,-2.34 -18.05,-7.02 -4.44,-4.66 -6.67,-11.23 -6.67,-19.67 0,-8.73 2.24,-15.51 6.74,-20.32 4.49,-4.83 10.33,-7.24 17.5,-7.24 6.93,0 12.6,2.36 17,7.08 4.4,4.73 6.6,11.38 6.6,19.96 0,0.52 -0.02,1.3 -0.05,2.34l-38.76 0c0.34,5.7 1.94,10.07 4.85,13.1 2.89,3.02 6.52,4.55 10.84,4.55 3.23,0 5.99,-0.85 8.26,-2.56 2.29,-1.7 4.1,-4.43 5.43,-8.17zm-28.88 -14.14l28.98 0c-0.38,-4.38 -1.51,-7.65 -3.33,-9.84 -2.79,-3.39 -6.43,-5.1 -10.9,-5.1 -4.04,0 -7.44,1.35 -10.2,4.06 -2.74,2.71 -4.26,6.33 -4.56,10.88zm7.42 -27.47l6.42 -13.74 11.63 0 -10.73 13.74 -7.32 0z"/>
 </g>
</svg>
