<?xml version="1.0" encoding="UTF-8"?>
<!DOCTYPE svg PUBLIC "-//W3C//DTD SVG 1.1//EN" "http://www.w3.org/Graphics/SVG/1.1/DTD/svg11.dtd">
<!-- Creator: CorelDRAW 2019 (64-Bit) -->
<svg xmlns="http://www.w3.org/2000/svg" xml:space="preserve" width="30.3763mm" height="32.3716mm" version="1.1" style="shape-rendering:geometricPrecision; text-rendering:geometricPrecision; image-rendering:optimizeQuality; fill-rule:evenodd; clip-rule:evenodd"
viewBox="0 0 573.4 611.06"
 xmlns:xlink="http://www.w3.org/1999/xlink">
 <defs>
  <style type="text/css">
   <![CDATA[
    .str0 {stroke:#373435;stroke-width:3.78;stroke-miterlimit:22.9256}
    .fil1 {fill:#FEFEFE}
    .fil8 {fill:#363435}
    .fil3 {fill:#010101}
    .fil0 {fill:#020202}
    .fil4 {fill:#232323}
    .fil7 {fill:#5E5E5E}
    .fil6 {fill:#9E9E9E}
    .fil5 {fill:#D9D9D9}
    .fil2 {fill:#FEFEFE}
    .fil9 {fill:#373435;fill-rule:nonzero}
   ]]>
  </style>
 </defs>
 <g id="Capa_x0020_1">
  <metadata id="CorelCorpID_0Corel-Layer"/>
  <g id="_2640987857168">
   <g>
    <g>
     <path class="fil0" d="M344.48 191.08c-4.51,12.53 -5.72,15.58 -20.52,23.3 -25.37,13.24 -86.34,10.03 -94.25,-20.94 -0.05,-0.21 -0.09,-0.41 -0.15,-0.61l-0.55 -1.79c-11.39,-0.04 -27.06,6.13 -36.01,10.84 -4.46,2.35 -10.31,6.09 -13.92,9.45 -4.87,4.53 -5.92,3.42 -12.08,11.32 -1.01,1.3 -1.47,1.74 -2.64,3.2 -21.76,27 -34.28,83.25 2.11,102.37 7.61,4 19.68,6.17 28.02,7.22 13.72,1.73 30.5,1.44 45.48,1.38 36.65,-0.14 110.18,1.75 139.09,-1.44 6.82,-0.75 13.63,-1.82 19.75,-3.81l6.69 -2.58c0.16,-0.07 0.35,-0.15 0.51,-0.22 7.44,-3.4 15.02,-10 18.71,-17.89l2.55 -6.2c4.97,-15.78 2.26,-36.84 -3.34,-52.65 -6.51,-18.4 -16.76,-29.57 -29.49,-40.71 -11.46,-10.03 -34.93,-20.51 -49.98,-20.23z"/>
     <path class="fil0" d="M254.29 13.85c-4.59,1.88 -12.04,7.12 -15.09,9.9 -1.68,1.53 -5.63,5.29 -6.57,6.53 -6.53,8.58 -10.08,13.33 -13.93,24.81 -2.89,8.64 -2.38,13.65 -3.91,22.39 -5.13,0.29 -8,0.87 -10.64,4 -5.04,5.96 -2.19,16.41 8.09,17.07 4.63,0.3 10.56,0.04 15.32,0.03l118.39 -0.01c9.77,0.05 19.8,1.93 24.36,-5.13 2.82,-4.35 3.05,-15.43 -11.6,-15.96 -2.48,-14.7 -1.83,-24.26 -12.2,-39.68 -2.81,-4.17 -7.88,-10.64 -11.76,-13.78 -3.61,-2.92 -10.26,-8.05 -15.55,-10.2l-5.3 29.71c-0.88,4.96 -0.9,5.9 -4.49,8.13 -10.97,1.18 -6.19,-10.43 -5.02,-18.13 3.65,-24.05 12.08,-33.66 -13.98,-33.43 -8.8,0.08 -18.5,-1.35 -23.91,4.12 -3.59,3.62 -0.02,14.38 1.48,22.99 0.82,4.71 4.69,19.83 2.09,22.97 -2.41,2.89 -7.13,1.97 -8.89,-0.82 -1.54,-2.42 -5.62,-30.46 -6.87,-35.51z"/>
     <path class="fil0" d="M357.34 112.81l-8.67 -0.06c-1.63,19.29 -9.93,37.06 -18.24,49.69 -3.68,5.58 -8.71,9.54 -12.58,13.02 -16.45,14.81 -38.93,16.42 -56.99,4.36 -5.46,-3.65 -13.67,-11.95 -17.41,-16.96 -1.12,-1.5 -2.16,-3.2 -3.13,-4.79 -0.27,-0.45 -1.02,-1.74 -1.64,-2.81l-1.55 -2.77c-5.99,-10.8 -11.22,-26.96 -12.3,-39.73l-8.67 0.05c2.87,24.95 13.65,51.18 29.6,67.55 1.69,1.74 3.02,2.8 4.88,4.51 8.24,7.56 22.33,13.99 36.12,13.96 12.23,-0.02 22.3,-4.1 29.75,-9.39 1.14,-0.81 1.6,-1.12 2.6,-1.82 7.99,-5.61 11.33,-9.71 16.81,-17.43 9.77,-13.76 15.47,-26.7 19.21,-43.59 0.31,-1.39 0.56,-3.12 0.8,-4.42 0.56,-3.05 1.06,-6.09 1.42,-9.37z"/>
    </g>
    <polygon class="fil1 str0" points="186.7,241.9 393.51,241.9 393.51,427.97 186.7,427.97 "/>
    <polygon class="fil1 str0" points="198.94,251.3 377.47,251.3 377.47,383.47 198.94,383.47 "/>
    <path class="fil2" d="M261.22 365.22c3.11,-0.05 2.85,-0.97 2.05,1.72 1.74,1.97 1.02,-0.94 0.82,2.17 -0.12,1.97 1.62,1.87 -1.47,1.11 -1.53,2.54 3.73,1.41 -3.56,2.6 -7.83,0.02 -18.72,1.31 -25,-1.24 -2.33,0.74 -1.86,1.21 -1.6,-1.18 1.99,-7.39 3.02,-5.43 12.81,-5.29 5.32,0.08 10.62,-0.02 15.95,0.12zm-47.33 6.7c-4.27,-2.19 -1.84,-0.67 -2.43,-5.93 25.95,-2.82 10,9.83 2.43,5.93zm36 -13.87c-6.57,-0.07 -12.02,0.57 -17.25,-1.18 0.44,-8.73 4.35,-6.12 14.18,-6.02 6.5,0.07 12.33,-0.4 17.7,0.91 -1.85,8.99 -4.17,6.4 -14.63,6.29zm-38.58 -6c3.97,-2.27 10.37,-1.49 13.87,0.61l0.05 3.62c-2.03,1.16 -5.05,2.62 -9.07,1.89 -6.23,-1.13 -3.92,-1.15 -4.85,-6.11zm21.18 -13.4c-0.17,-2.53 -0.75,-2.16 1.62,-1.28 6.01,-2.56 17.15,-1.28 24.95,-1.3 6.8,1.22 2.32,0.05 3.48,2.69 4.07,0.53 4.15,0.95 0.75,3.26 0.77,2.62 1.03,1.73 -1.99,1.66 -5.36,0.17 -10.68,0.05 -16.03,0.13 -7.74,0.1 -12.09,2 -12.78,-5.16zm-14.73 5.12c-3.04,0.01 -4.23,-0.43 -6.3,-1.06 0.53,-15.71 25.69,1 6.3,1.06zm38.25 -14.26c-23.04,-0 -22.23,1.97 -23.13,-6.06 2.17,-1.34 20.4,-1.47 24.82,-1.13 10.01,0.76 9.41,7.19 -1.69,7.19zm-30.94 -5.49c-1.06,8.08 -12.44,9.29 -13.63,-0.79 8.39,-0.89 8.53,-1.8 13.63,0.79zm58.08 36.9l3.9 0.13c0.87,-10.65 6.27,-28.74 8.93,-39.93 1.53,-6.43 4.85,-35.65 16.08,-30.06 6.3,6.66 6.05,22.58 8.96,33.74 2.65,-8.58 3.46,-17.65 13.42,-13.65 4.79,2.85 8.93,22.04 10.68,27.66 2.81,8.99 6.12,18.88 8.88,27.94 5.22,-7.81 0.83,-19.34 13.84,-15.71 -0.93,10.93 -1.01,-1.23 -4.79,12.52 -1.36,4.96 -1.69,7.49 -3.61,11.37 -12.12,1.84 -11.43,-2.54 -17.86,-23.47 -3.26,-10.61 -6.97,-22.41 -10.27,-32.35l-6.44 13.75c-12.86,1.77 -11.63,-4.29 -15.44,-32.37l-6.14 20.17c-1.61,6.78 -3.33,14.08 -4.95,20.94 -6.14,26.07 -4.79,34.25 -18.12,31.2 -0.7,-1.39 -8.31,-18.47 -6.36,-22.2 6.87,-0.7 8.34,3.07 9.28,10.31zm-62.61 -94.08c11.93,-4.55 13.02,4.27 19.73,1.71 7.68,-2.94 12.63,-5.66 19.61,1.19 16.01,15.71 -12.7,47.86 -24.43,44.39 -16.67,-4.92 -36.84,-38.92 -14.91,-47.29zm147.49 4.56c-5.03,1.77 -9.41,2.02 -13.9,-0.59l-0.01 -3.66c3.18,-3.01 10.12,-1.89 13.9,-0.54l0.01 4.79zm-23.08 1.09c-6.18,2.15 -39.96,2.18 -46.29,0.01 -3.25,1.02 -2.77,1.78 -2.14,-1.47l0 -4.05c-0.65,-3.34 -1.17,-2.61 2.12,-1.51 6.08,-2.12 40.38,-2.1 46.3,0.02 3.54,-1.01 3.03,-1.69 1.82,1.77l-0.04 3.43c1.02,3.44 1.64,2.87 -1.78,1.8zm-139.47 112.73l3.1 -0.16 171.35 0 -6.08 0.16 0 -125.55 6.08 0.16 -174.45 -0.16 0 125.55z"/>
    <path class="fil3" d="M361.2 436.36c6.68,-3.41 25.65,-1.5 17.54,6.66 -0.37,0.38 -24.84,6.63 -17.54,-6.66zm-142.12 3.41c0.14,5.14 -3.41,4.32 -5.96,4.51 -28.42,2.16 -10.77,-15.75 4.58,-7.93 1.12,2.04 1.21,-3.4 1.39,3.41zm-29.55 -194.23c-0.95,-3.35 -1.53,-2.74 1.82,-1.75 5.58,-2 190.62,-2 196.2,0 3.35,-0.99 2.77,-1.6 1.82,1.75 2.9,8.13 1.06,77.08 1.06,91.79 0,11.13 2.62,86.33 -1.75,89.63 0.64,2.85 1.22,2.22 -1.69,1.96l-195.07 0c-2.91,0.26 -2.33,0.9 -1.69,-1.96 -4.08,-4.77 -1.75,-78.72 -1.75,-91.15 0,-14.52 -1.82,-82.19 1.06,-90.26zm-7.18 174.2c0.05,10.4 1.59,14.08 10.71,16.48 0.05,7.39 -0.15,7.99 2.18,13.22l27.73 0.11c2.46,-5.36 2.18,-5.83 2.18,-13.29l128.6 -0.05c-0.01,7.51 -0.28,7.97 2.19,13.18l27.72 0.19c2.31,-5.37 2.11,-5.97 2.16,-13.36 9.08,-2.39 10.72,-6.08 10.72,-16.48l0 -167.87c0,-13.29 -3.81,-15.26 -16.83,-15.26l-180.53 0c-21.89,0 -16.83,11.76 -16.83,32.05l0 151.08z"/>
    <path class="fil3" d="M204.18 386.31c-1.06,-1.42 -0.88,-0.02 -1.56,-2.98l-0.16 -105.18c0,-4.45 -0.25,-9.51 -0.12,-13.86 0.18,-5.82 0.41,-7.18 6.11,-7.71l136.29 0.11c29.54,0 32.18,-3.56 32.22,9.16l-0.09 96.24c0,25.59 3.18,25.95 -12.21,25.83 -20.09,-0.16 -155.17,2.14 -160.47,-1.6zm-7.32 -123.42l0 119.04c0,9.69 1.99,11.67 11.71,11.67l162.17 0c9.72,0 11.71,-1.98 11.71,-11.67l0 -119.04c0,-11.68 -3.55,-11.69 -14.77,-11.69l-157.58 0c-10.54,0 -13.25,0.95 -13.25,11.69z"/>
    <path class="fil3" d="M287.04 361.05l-2.42 4.12 -1.47 -4.25c-0.94,-7.24 -2.41,-11.01 -9.28,-10.31 -1.95,3.73 5.66,20.81 6.36,22.2 13.33,3.05 11.98,-5.13 18.12,-31.2 1.61,-6.86 3.34,-14.16 4.95,-20.94l6.14 -20.17c3.81,28.07 2.58,34.13 15.44,32.37l6.44 -13.75c3.3,9.94 7.01,21.75 10.27,32.35 6.43,20.93 5.74,25.31 17.86,23.47 1.92,-3.88 2.24,-6.41 3.61,-11.37 3.78,-13.75 3.86,-1.6 4.79,-12.52 -13.02,-3.63 -8.62,7.89 -13.84,15.71 -2.76,-9.06 -6.07,-18.95 -8.88,-27.94 -1.75,-5.62 -5.89,-24.8 -10.68,-27.66 -9.96,-4 -10.78,5.07 -13.42,13.65 -2.91,-11.16 -2.65,-27.09 -8.96,-33.74 -11.23,-5.59 -14.56,23.62 -16.08,30.06 -2.66,11.19 -8.06,29.28 -8.93,39.93z"/>
    <path class="fil3" d="M218.85 276.49c-0.95,-3.34 -2.13,-3.25 0.89,-2.47 -0.79,-2.95 -0.87,-1.79 2.44,-0.9 4.21,-2.4 5.08,-3.39 7.96,0.7 5.26,3 4.54,7.92 10.47,4.47 5.66,-3.3 1.42,-7.22 13.89,-4.45 9.59,14.28 -7.76,27.53 -14.91,33.31 -10.35,-2.6 -13.63,-10.13 -19.45,-16.8 -3.59,0 -2.61,0.66 -1.3,-3.01 -2.4,-5.83 -2.78,-5.45 0.01,-10.84zm1.69 -9.65c-21.92,8.37 -1.76,42.36 14.91,47.29 11.73,3.47 40.43,-28.68 24.43,-44.39 -6.98,-6.85 -11.93,-4.13 -19.61,-1.19 -6.71,2.56 -7.79,-6.26 -19.73,-1.71z"/>
    <path class="fil4" d="M203.97 258.5l-1.52 -0.2 172.89 0.2 0 127.81 1.52 0.18 -172.89 -0.18 -0 -127.81zm0.2 127.81c5.3,3.74 140.38,1.45 160.47,1.6 15.39,0.12 12.21,-0.24 12.21,-25.83l0.09 -96.24c-0.04,-12.72 -2.67,-9.16 -32.22,-9.16l-136.29 -0.11c-5.7,0.53 -5.93,1.89 -6.11,7.71 -0.14,4.35 0.12,9.4 0.12,13.86l0.16 105.18c0.68,2.96 0.51,1.56 1.56,2.98z"/>
    <path class="fil2" d="M219.73 274.03l-0.89 2.47 -0.01 10.84 1.3 3.01c5.82,6.67 9.1,14.2 19.45,16.8 7.15,-5.78 24.5,-19.03 14.91,-33.31 -12.47,-2.77 -8.22,1.16 -13.89,4.45 -5.93,3.45 -5.21,-1.47 -10.47,-4.47l-7.96 -0.7 -2.44 0.9z"/>
    <path class="fil5" d="M205.47 259.67l174.45 0.16 -6.08 -0.16 0 125.55 6.08 -0.16 -171.35 0 -3.1 0.16 0 -125.55zm-1.5 126.64l172.89 0.18 -1.52 -0.18 0 -127.81 -172.89 -0.2 1.52 0.2 0 127.81z"/>
    <polygon class="fil3" points="296.51,266.98 296.51,271.03 298.65,272.5 344.94,272.5 346.71,270.7 346.75,267.27 344.93,265.5 298.64,265.47 "/>
    <path class="fil3" d="M257.53 414.79c-15.01,-7.87 14.98,-8.08 0,0zm-6.88 5.73c20.48,5.26 20.91,-12.62 12.21,-18.03 -9.53,-5.92 -21.33,4.95 -12.21,18.03z"/>
    <path class="fil3" d="M230.1 407.46c3.18,-0.68 2.91,-1.58 2.1,1.38 0.06,0.12 3.82,5.01 -0.79,4.99 -1.7,2.9 -1.46,3.56 -5.08,0.87 -2.94,0.88 -1.97,1.09 -1.36,-2.13 1.69,-3.45 1.04,-3.99 5.13,-5.11zm-10.84 -0.28l-0.69 8.82 2.52 2.18 1.83 1.44 2.09 2.64c31.6,-2.65 4.25,-36.04 -5.75,-15.09z"/>
    <path class="fil3" d="M282.89 408.86c-0.73,-2.91 -1.04,-2.04 2.09,-1.39 4.45,2.11 2.93,0.6 5.1,5.04 0.61,3.2 1.56,2.96 -1.37,2.15 -3.15,2.63 -3.21,2.47 -5.02,-0.86 -4.73,0.2 -0.83,-4.87 -0.79,-4.93zm7.06 13.3l2.26 -2.47 1.78 -1.5 2.44 -2.23 -0.63 -8.74c-5.37,-11.3 -21.39,-8.55 -19.83,8.74 5.47,5.54 4.32,5.65 13.98,6.21z"/>
    <path class="fil3" d="M322.16 409.5c0.99,7.81 5.01,5.49 24.11,5.49 8.84,-0 10,1.67 10.87,-6.06 -4.35,-1.28 -32.39,-2.18 -34.98,0.58z"/>
    <path class="fil3" d="M232.64 356.88c5.22,1.74 10.68,1.11 17.25,1.18 10.46,0.11 12.78,2.7 14.63,-6.29 -5.37,-1.3 -11.2,-0.84 -17.7,-0.91 -9.83,-0.1 -13.74,-2.71 -14.18,6.02z"/>
    <path class="fil3" d="M232.86 323.45c0.91,8.03 0.09,6.06 23.13,6.06 11.1,0 11.7,-6.43 1.69,-7.19 -4.43,-0.34 -22.65,-0.21 -24.82,1.13z"/>
    <path class="fil3" d="M232.46 370.39l1.6 1.18 28.56 -1.36 0.65 -3.28c-2.65,0.15 -2.05,0.82 -2.05,-1.72 -5.33,-0.14 -10.63,-0.04 -15.95,-0.12 -9.79,-0.14 -10.82,-2.1 -12.81,5.29z"/>
    <path class="fil3" d="M232.48 338.65c0.69,7.16 5.05,5.26 12.78,5.16 5.36,-0.07 10.68,0.04 16.03,-0.13 0,-2.32 -0.53,-1.63 1.99,-1.66l-0.75 -3.26 -28.43 -1.39 -1.62 1.28z"/>
    <path class="fil6" d="M296.51 266.98l2.12 -1.51 46.3 0.02 1.82 1.77 -0.04 3.43 -1.78 1.8 -46.29 0.01 -2.14 -1.47c-0.63,3.25 -1.11,2.49 2.14,1.47 6.32,2.17 40.1,2.15 46.29,-0.01 3.42,1.07 2.8,1.64 1.78,-1.8l0.04 -3.43c1.22,-3.46 1.73,-2.78 -1.82,-1.77 -5.91,-2.13 -40.21,-2.14 -46.3,-0.02 -3.29,-1.1 -2.77,-1.83 -2.12,1.51z"/>
    <path class="fil7" d="M201.02 441.44l-0.01 -3.05c3.71,-2.4 13.12,-2.29 16.65,0l-7.52 4.68c-8.64,0.15 -7.43,-0.52 -9.13,-1.63zm16.88 -4.74c-15.34,-7.83 -32.99,10.08 -4.58,7.93 2.56,-0.19 6.1,0.62 5.96,-4.51 -0.18,-6.82 -0.26,-1.37 -1.38,-3.41z"/>
    <path class="fil2" d="M373.87 436.84c-3.78,-0.46 -9.4,-0.27 -12.23,1.55l0.02 3.05c3.56,2.32 13.01,2.37 16.64,0l0.01 -3.05c-1.75,-1.13 1.58,-0.83 -4.43,-1.55z"/>
    <path class="fil3" d="M354.11 267.15l0.01 3.66c4.49,2.61 8.87,2.36 13.9,0.59l-0.01 -4.79c-3.78,-1.35 -10.72,-2.47 -13.9,0.54z"/>
    <path class="fil3" d="M211.31 352.05c0.93,4.96 -1.38,4.98 4.85,6.11 4.02,0.73 7.04,-0.73 9.07,-1.89l-0.05 -3.62c-3.51,-2.09 -9.9,-2.87 -13.87,-0.61z"/>
    <path class="fil3" d="M378.59 408.99c-2.62,-0.8 -17.46,-3.16 -13.08,3.99 1.25,2.03 5.33,2.51 8.17,2.17 5.13,-0.62 4.29,-1.24 4.91,-6.16z"/>
    <path class="fil3" d="M211.45 342.71c2.07,0.63 3.26,1.07 6.3,1.06 19.39,-0.06 -5.77,-16.77 -6.3,-1.06z"/>
    <path class="fil3" d="M211.45 365.99c0.59,5.26 -1.83,3.74 2.43,5.93 7.57,3.89 23.51,-8.76 -2.43,-5.93z"/>
    <path class="fil3" d="M211.43 323.24c1.18,10.07 12.56,8.86 13.63,0.79 -5.1,-2.58 -5.23,-1.67 -13.63,-0.79z"/>
    <path class="fil7" d="M361.66 441.44l-0.02 -3.05c2.84,-1.83 8.45,-2.01 12.23,-1.55 6.01,0.72 2.67,0.42 4.43,1.55l-0.01 3.05c-3.62,2.37 -13.08,2.32 -16.64,0zm-0.25 -4.74c-7.29,13.29 17.17,7.04 17.55,6.66 8.11,-8.16 -10.86,-10.07 -17.55,-6.66z"/>
    <path class="fil2" d="M217.67 438.39c-3.53,-2.29 -12.94,-2.4 -16.65,0l0.01 3.05c1.7,1.11 0.48,1.78 9.13,1.63l7.52 -4.68z"/>
    <path class="fil7" d="M232.48 338.65l1.62 -1.28 28.43 1.39 0.75 3.26c-2.51,0.03 -1.99,-0.66 -1.99,1.66 3.02,0.07 2.76,0.96 1.99,-1.66 3.4,-2.31 3.32,-2.73 -0.75,-3.26 -1.15,-2.65 3.32,-1.48 -3.48,-2.69 -7.8,0.02 -18.95,-1.26 -24.95,1.3 -2.37,-0.88 -1.79,-1.26 -1.62,1.28z"/>
    <path class="fil7" d="M263.27 366.94l-0.65 3.28 -28.56 1.36 -1.6 -1.18c-0.26,2.39 -0.73,1.92 1.6,1.18 6.28,2.55 17.17,1.26 25,1.24 7.29,-1.18 2.03,-0.06 3.56,-2.6 3.09,0.76 1.35,0.86 1.47,-1.11 0.2,-3.1 0.91,-0.2 -0.82,-2.17 0.8,-2.69 1.06,-1.77 -2.05,-1.72 0,2.54 -0.6,1.87 2.05,1.72z"/>
    <path class="fil3" d="M200.37 413.02l1.62 1.19 7.06 -1.34 0.74 -3.27c-2.62,-0.01 -2.1,0.72 -2.1,-1.64 -7.16,-0.03 -5.7,-0.6 -7.32,5.06z"/>
    <path class="fil2" d="M224.98 412.57l1.36 2.13 5.08 -0.87 0.79 -4.99 -2.1 -1.38c-4.09,1.11 -3.44,1.65 -5.13,5.11z"/>
    <path class="fil2" d="M257.53 414.79c14.98,-8.08 -15.01,-7.87 0,0z"/>
    <path class="fil2" d="M282.89 408.86l0.79 4.93 5.02 0.86c-0.15,-2.61 -0.89,-2.15 1.37,-2.15 -2.17,-4.45 -0.64,-2.93 -5.1,-5.04l-2.09 1.39z"/>
    <path class="fil7" d="M219.73 274.03c-3.02,-0.79 -1.83,-0.87 -0.89,2.47 -2.78,5.39 -2.41,5.01 -0.01,10.84 -1.31,3.67 -2.29,3.01 1.3,3.01l-1.3 -3.01 0.01 -10.84 0.89 -2.47 2.44 -0.9 7.96 0.7c-2.89,-4.09 -3.76,-3.11 -7.96,-0.7 -3.31,-0.89 -3.22,-2.05 -2.44,0.9z"/>
    <path class="fil7" d="M209.79 409.6l-0.74 3.27 -7.06 1.34 -1.62 -1.19c-0.24,2.49 -0.75,2.06 1.62,1.19 0.56,0.29 -1.17,1.88 3.63,1.17 7.03,-1.04 2.12,0.42 3.43,-2.51 5.37,1.22 0.86,-3.13 0.74,-3.27 0.6,-2.58 0.9,-1.68 -2.1,-1.64 0,2.36 -0.52,1.63 2.1,1.64z"/>
    <path class="fil7" d="M283.69 413.8c1.81,3.33 1.87,3.49 5.02,0.86 2.93,0.81 1.98,1.06 1.37,-2.15 -2.27,0 -1.52,-0.46 -1.37,2.15l-5.02 -0.86 -0.79 -4.93 2.09 -1.39c-3.13,-0.65 -2.82,-1.52 -2.09,1.39 -0.03,0.06 -3.94,5.14 0.79,4.93z"/>
    <path class="fil7" d="M232.21 408.84l-0.79 4.99 -5.08 0.87 -1.36 -2.13c-0.61,3.22 -1.57,3.01 1.36,2.13 3.62,2.69 3.37,2.03 5.08,-0.87 4.61,0.02 0.85,-4.87 0.79,-4.99 0.8,-2.96 1.08,-2.06 -2.1,-1.38l2.1 1.38z"/>
    <path class="fil6" d="M218.57 416.01l2.52 2.18c-0.41,2.57 -0.86,1.92 1.83,1.44l2.09 2.64 -2.09 -2.64 -1.83 -1.44 -2.52 -2.18 0.69 -8.82c-2.4,2.33 -1.28,-3.43 -1.9,3.78 -0.29,3.35 0.05,2.46 1.21,5.04z"/>
    <path class="fil6" d="M296.42 415.96l-2.44 2.23 -1.78 1.5 -2.26 2.47 2.26 -2.47c2.64,0.47 2.14,1.08 1.78,-1.5l2.44 -2.23c3.32,-6.28 1.07,-5.36 0.21,-7.53 -0.14,-0.35 -0.53,-0.83 -0.84,-1.21l0.63 8.74z"/>
    <polygon class="fil6" points="287.04,361.05 283.14,360.92 284.62,365.17 "/>
   </g>
   <g>
    <path class="fil8" d="M128.14 522.66c0,-10.72 -1.67,-19.61 3.45,-24.74 9.51,-9.52 21.92,-1.87 21.92,6.89 0,11.82 3.16,30.07 -12.21,30.07 -6.47,0 -13.15,-5.94 -13.15,-12.22zm-7.52 15.98c0,3.86 6.96,4.8 7.52,-1.88 4.2,2.81 6.72,5.64 14.1,5.64 11.2,0 19.73,-9.91 19.73,-21.61 0,-11.85 1.42,-19.29 -5.04,-27.85 -2.31,-3.06 -8.92,-6.92 -13.75,-6.92 -7.8,0 -10.44,2.56 -15.04,5.64 0,-4.07 -0.03,-8.15 0.01,-12.22 0.09,-9.87 1.34,-10.31 -5.95,-10.33l-0.37 0 -0.39 0 -0.4 0 -0.42 0 0 69.54z"/>
    <path class="fil8" d="M314.19 506.69c0,-6.95 5.47,-13.16 12.21,-13.16 6.77,0 13.16,4.73 13.16,11.28l0 4.7 -25.37 0 0 -2.82zm-7.52 -1.88c0,11.55 -1.58,19.18 2.84,26.29 6.61,10.63 20.93,12.2 32.87,9.42l0 -6.58c-17.16,0 -28.19,1.69 -28.19,-16.92 9.43,0 24.3,1.06 32.89,-0.94 3.75,-16.11 -5.18,-30.07 -20.67,-30.07 -9.84,0 -19.73,8.83 -19.73,18.79z"/>
    <path class="fil8" d="M222.1 521.73c0,-10.59 -2.93,-28.19 12.21,-28.19 16.06,0 13.15,17.14 13.15,28.19 0,16.55 -25.37,18.15 -25.37,0zm-8.46 -9.4c0,8.47 0.02,15.73 4.53,21.79 11.53,15.48 36.82,7.07 36.82,-10.51l0 -18.79c0,-22.34 -41.35,-30.2 -41.35,7.52z"/>
    <path class="fil8" d="M270.97 479.44l0 7.52 -7.52 0.94c0,7.08 -0.74,6.58 7.52,6.58 0,33.04 -4.77,46.99 21.61,46.99 2.54,0 2.59,-0.45 4.7,-0.94 0,-8.06 -0.57,-6.58 -8.63,-7.34 -12.57,-1.19 -9.22,-2.82 -9.22,-38.7 18.43,0 17.85,1.43 17.85,-4.7 0,-4.49 -6.29,-2.82 -17.85,-2.82l0 -10.34c-1.15,-0.27 -8.46,-3.05 -8.46,2.82z"/>
    <path class="fil8" d="M170.42 489.78c0,5.51 -0.24,4.7 9.4,4.7l0 39.47 -9.4 0 0 6.58c8.18,1.9 17.81,0.94 26.31,0.94 3.56,0 2.82,-2.19 2.82,-7.52l-12.21 0 0 -28.19c0,-2.53 1.34,-2.67 2.76,-3.82 1.16,-0.94 2.35,-1.86 3.67,-2.91 5.73,-4.52 7.21,-4.55 13.3,-4.55l0 -7.52c-16.89,0 -11.34,5.28 -19.73,7.52 0,-8.72 -1.13,-7.52 -14.1,-7.52 -2.17,0 -2.82,0.65 -2.82,2.82z"/>
    <path class="fil8" d="M358.36 508.57c0,9.4 -0.87,18.91 4.94,26.07 9.44,11.63 25.55,8.31 30.77,1.18 -1.28,-5.51 -1.13,-2.05 -3.76,-5.64 -2.9,1.53 -6.56,4.7 -10.34,4.7 -16.45,0 -13.15,-16.52 -13.15,-30.07 0,-6.07 6.23,-11.28 12.21,-11.28 7.49,0 12.39,8.98 15.04,-0.94 -8.86,-12.09 -35.71,-7.68 -35.71,15.98z"/>
    <path class="fil8" d="M66.11 512.33l0 0.3c0.02,6.25 0.8,5.51 8.86,8.69 4.29,1.69 6.92,2.96 11.28,4.7 4.11,1.63 6.5,2.8 10.6,4.44 8.07,3.21 9.66,5.94 9.66,-1.21 0,-4.09 -8.19,-5.47 -15.01,-8.48 -4.69,-2.07 -11.68,-5.33 -16.94,-6.55l24.98 -10.73c5.95,-2.29 6.97,-1.81 6.97,-7.13 0,-5.49 -11.82,1.74 -20.26,5.11 -3.89,1.55 -7.21,2.77 -10.72,4.31 -4.25,1.87 -9.42,2.81 -9.42,6.55z"/>
    <path class="fil8" d="M468.3 496.35c0,6.02 2.94,5.7 14.23,10.2l16.78 6.71 -22.82 10.07c-3.33,1.45 -4.41,2.2 -8.19,3.08 0,10.6 -1.06,8.04 17.59,0.67l22.82 -10.07c-0.2,-9.16 -2.44,-8.54 -18.12,-14.77 -4.34,-1.72 -8.08,-3.21 -11.97,-4.94 -6.08,-2.7 -10.31,-5.49 -10.31,-0.96z"/>
    <path class="fil8" d="M425.07 546.16l6.58 0c0.69,-2.95 2.58,-6.91 3.62,-9.53l24.16 -59.48c2.51,-6.17 5.38,-8.05 -1.48,-8.05 -3.77,0 -6.7,11.68 -9.42,17.83 -3.43,7.75 -23.07,54.43 -23.47,59.22z"/>
   </g>
   <path class="fil9" d="M-0 601.75l0 -33.48 11.54 0c2.6,0 4.59,0.15 5.96,0.48 1.92,0.44 3.55,1.25 4.91,2.4 1.77,1.5 3.09,3.4 3.96,5.72 0.88,2.32 1.32,4.98 1.32,7.97 0,2.54 -0.3,4.79 -0.89,6.76 -0.59,1.96 -1.36,3.59 -2.28,4.88 -0.93,1.29 -1.95,2.3 -3.05,3.03 -1.1,0.74 -2.43,1.3 -3.99,1.68 -1.57,0.38 -3.36,0.57 -5.39,0.57l-12.08 0zm4.44 -3.93l7.14 0c2.21,0 3.94,-0.2 5.19,-0.62 1.26,-0.41 2.25,-0.99 3,-1.74 1.04,-1.05 1.86,-2.47 2.45,-4.25 0.59,-1.78 0.88,-3.93 0.88,-6.46 0,-3.51 -0.58,-6.2 -1.72,-8.09 -1.15,-1.89 -2.54,-3.15 -4.18,-3.79 -1.18,-0.46 -3.09,-0.69 -5.73,-0.69l-7.02 0 0 25.63zm28.81 -24.88l0 -4.68 4.12 0 0 4.68 -4.12 0zm0 28.81l0 -24.27 4.12 0 0 24.27 -4.12 0zm17.02 0l-9.16 -24.27 4.4 0 5.19 14.54c0.56,1.57 1.08,3.2 1.56,4.89 0.37,-1.28 0.87,-2.81 1.53,-4.62l5.39 -14.81 4.22 0 -9.19 24.27 -3.96 0zm14.45 0l0 -4.68 4.68 0 0 4.68 -4.68 0zm23.88 -10.76l4.16 -0.37c0.2,1.68 0.66,3.06 1.38,4.15 0.72,1.08 1.85,1.95 3.37,2.62 1.52,0.66 3.24,1 5.14,1 1.69,0 3.18,-0.25 4.47,-0.76 1.29,-0.51 2.25,-1.2 2.88,-2.08 0.63,-0.88 0.95,-1.84 0.95,-2.87 0,-1.04 -0.3,-1.96 -0.91,-2.74 -0.61,-0.78 -1.61,-1.43 -3.01,-1.97 -0.9,-0.34 -2.88,-0.89 -5.96,-1.63 -3.08,-0.74 -5.23,-1.43 -6.46,-2.09 -1.6,-0.84 -2.78,-1.89 -3.56,-3.12 -0.79,-1.24 -1.18,-2.64 -1.18,-4.17 0,-1.7 0.48,-3.28 1.44,-4.75 0.96,-1.47 2.35,-2.59 4.2,-3.35 1.84,-0.76 3.89,-1.14 6.14,-1.14 2.48,0 4.67,0.4 6.56,1.2 1.9,0.8 3.35,1.97 4.37,3.53 1.02,1.55 1.56,3.31 1.64,5.28l-4.26 0.33c-0.22,-2.11 -1,-3.71 -2.31,-4.79 -1.32,-1.08 -3.27,-1.62 -5.84,-1.62 -2.68,0 -4.64,0.49 -5.86,1.47 -1.22,0.98 -1.84,2.17 -1.84,3.55 0,1.2 0.44,2.19 1.3,2.97 0.86,0.77 3.08,1.57 6.68,2.38 3.6,0.82 6.07,1.53 7.41,2.14 1.94,0.9 3.38,2.03 4.31,3.41 0.93,1.37 1.39,2.95 1.39,4.75 0,1.78 -0.51,3.45 -1.53,5.03 -1.02,1.57 -2.48,2.8 -4.39,3.67 -1.91,0.87 -4.05,1.31 -6.45,1.31 -3.02,0 -5.56,-0.44 -7.6,-1.33 -2.05,-0.88 -3.65,-2.2 -4.81,-3.98 -1.17,-1.77 -1.78,-3.77 -1.84,-6.01zm48.68 2.9l4.26 0.56c-0.66,2.47 -1.9,4.4 -3.71,5.76 -1.81,1.36 -4.12,2.05 -6.93,2.05 -3.54,0 -6.34,-1.09 -8.42,-3.28 -2.07,-2.17 -3.11,-5.24 -3.11,-9.17 0,-4.07 1.04,-7.23 3.14,-9.48 2.1,-2.25 4.82,-3.38 8.16,-3.38 3.23,0 5.88,1.1 7.93,3.3 2.05,2.21 3.08,5.31 3.08,9.31 0,0.24 -0.01,0.61 -0.02,1.09l-18.07 0c0.16,2.66 0.9,4.7 2.26,6.11 1.35,1.41 3.04,2.12 5.06,2.12 1.5,0 2.79,-0.4 3.85,-1.19 1.07,-0.79 1.91,-2.07 2.53,-3.81zm-13.47 -6.59l13.52 0c-0.18,-2.04 -0.7,-3.57 -1.55,-4.59 -1.3,-1.58 -3,-2.38 -5.08,-2.38 -1.89,0 -3.47,0.63 -4.75,1.89 -1.28,1.26 -1.99,2.95 -2.13,5.07zm22.87 14.45l0 -24.27 3.69 0 0 3.72c0.94,-1.72 1.82,-2.86 2.62,-3.41 0.8,-0.55 1.68,-0.82 2.64,-0.82 1.39,0 2.8,0.44 4.23,1.3l-1.47 3.8c-1,-0.56 -2,-0.84 -2.99,-0.84 -0.9,0 -1.7,0.27 -2.41,0.81 -0.71,0.54 -1.22,1.29 -1.52,2.24 -0.46,1.46 -0.69,3.05 -0.69,4.79l0 12.68 -4.12 0zm22.25 0l-9.16 -24.27 4.4 0 5.19 14.54c0.56,1.57 1.08,3.2 1.56,4.89 0.37,-1.28 0.87,-2.81 1.53,-4.62l5.39 -14.81 4.22 0 -9.19 24.27 -3.96 0zm16.75 -28.81l0 -4.68 4.12 0 0 4.68 -4.12 0zm0 28.81l0 -24.27 4.12 0 0 24.27 -4.12 0zm26.24 -8.89l4.02 0.56c-0.44,2.77 -1.57,4.93 -3.38,6.49 -1.82,1.57 -4.05,2.35 -6.7,2.35 -3.31,0 -5.98,-1.08 -7.99,-3.25 -2.02,-2.17 -3.02,-5.27 -3.02,-9.31 0,-2.62 0.44,-4.9 1.3,-6.87 0.86,-1.96 2.18,-3.43 3.96,-4.4 1.77,-0.98 3.69,-1.47 5.78,-1.47 2.63,0 4.79,0.66 6.45,2 1.67,1.33 2.75,3.23 3.22,5.67l-3.98 0.61c-0.38,-1.63 -1.05,-2.85 -2.03,-3.68 -0.97,-0.82 -2.14,-1.23 -3.51,-1.23 -2.07,0 -3.76,0.74 -5.06,2.22 -1.29,1.49 -1.94,3.83 -1.94,7.04 0,3.26 0.62,5.62 1.87,7.09 1.25,1.47 2.88,2.21 4.89,2.21 1.62,0 2.97,-0.49 4.05,-1.48 1.08,-0.98 1.77,-2.5 2.06,-4.55zm7.53 -19.92l0 -4.68 4.12 0 0 4.68 -4.12 0zm0 28.81l0 -24.27 4.12 0 0 24.27 -4.12 0zm8.85 -12.14c0,-4.48 1.25,-7.8 3.75,-9.96 2.08,-1.79 4.63,-2.69 7.63,-2.69 3.33,0 6.06,1.09 8.18,3.27 2.11,2.17 3.17,5.19 3.17,9.03 0,3.12 -0.47,5.57 -1.4,7.35 -0.93,1.79 -2.3,3.17 -4.09,4.16 -1.79,0.99 -3.74,1.48 -5.85,1.48 -3.4,0 -6.14,-1.08 -8.24,-3.26 -2.1,-2.17 -3.14,-5.31 -3.14,-9.39zm4.21 0.01c0,3.1 0.68,5.43 2.03,6.96 1.36,1.54 3.07,2.32 5.14,2.32 2.04,0 3.74,-0.77 5.1,-2.32 1.36,-1.55 2.03,-3.91 2.03,-7.08 0,-2.99 -0.69,-5.26 -2.05,-6.8 -1.36,-1.54 -3.06,-2.32 -5.09,-2.32 -2.07,0 -3.77,0.76 -5.14,2.3 -1.36,1.54 -2.03,3.85 -2.03,6.94zm36.94 12.13l0 -33.48 24.18 0 0 3.93 -19.73 0 0 10.29 18.47 0 0 3.93 -18.47 0 0 11.41 20.53 0 0 3.93 -24.97 0zm46.04 9.31l0 -11.91c-0.64,0.9 -1.54,1.64 -2.68,2.23 -1.15,0.59 -2.37,0.89 -3.66,0.89 -2.88,0 -5.35,-1.15 -7.43,-3.45 -2.07,-2.29 -3.11,-5.44 -3.11,-9.43 0,-2.43 0.42,-4.61 1.26,-6.55 0.85,-1.93 2.07,-3.39 3.68,-4.38 1.61,-1 3.37,-1.5 5.29,-1.5 3,0 5.35,1.26 7.08,3.77l0 -3.26 3.69 0 0 33.58 -4.12 0zm-12.67 -21.51c0,3.12 0.66,5.46 1.97,7.01 1.31,1.56 2.87,2.34 4.71,2.34 1.75,0 3.26,-0.74 4.53,-2.22 1.26,-1.49 1.89,-3.74 1.89,-6.77 0,-3.23 -0.67,-5.65 -2,-7.28 -1.33,-1.63 -2.89,-2.44 -4.69,-2.44 -1.78,0 -3.3,0.76 -4.54,2.27 -1.24,1.51 -1.86,3.87 -1.86,7.08zm39.08 12.21l0 -3.61c-1.89,2.75 -4.44,4.12 -7.68,4.12 -1.43,0 -2.76,-0.27 -4,-0.82 -1.24,-0.55 -2.16,-1.24 -2.76,-2.07 -0.6,-0.83 -1.02,-1.85 -1.26,-3.05 -0.16,-0.81 -0.25,-2.09 -0.25,-3.83l0 -15.02 4.12 0 0 13.43c0,2.14 0.08,3.59 0.25,4.33 0.26,1.08 0.8,1.93 1.64,2.54 0.83,0.62 1.86,0.93 3.09,0.93 1.23,0 2.39,-0.31 3.46,-0.94 1.08,-0.63 1.84,-1.5 2.29,-2.58 0.45,-1.08 0.67,-2.67 0.67,-4.73l0 -12.98 4.12 0 0 24.27 -3.7 0zm10.16 -28.81l0 -4.68 4.12 0 0 4.68 -4.12 0zm0 28.81l0 -24.27 4.12 0 0 24.27 -4.12 0zm10.39 9.31l0 -33.58 3.74 0 0 3.19c0.88,-1.23 1.88,-2.16 2.99,-2.77 1.11,-0.62 2.45,-0.93 4.04,-0.93 2.07,0 3.9,0.53 5.48,1.6 1.58,1.06 2.77,2.57 3.58,4.5 0.8,1.94 1.21,4.06 1.21,6.37 0,2.47 -0.44,4.7 -1.33,6.69 -0.89,1.98 -2.18,3.5 -3.88,4.56 -1.69,1.05 -3.48,1.58 -5.35,1.58 -1.37,0 -2.6,-0.29 -3.69,-0.87 -1.09,-0.58 -1.98,-1.3 -2.68,-2.18l0 11.84 -4.12 0zm3.74 -21.29c0,3.11 0.63,5.41 1.89,6.9 1.26,1.49 2.79,2.24 4.58,2.24 1.82,0 3.38,-0.77 4.68,-2.32 1.3,-1.54 1.95,-3.93 1.95,-7.16 0,-3.09 -0.63,-5.39 -1.9,-6.93 -1.27,-1.53 -2.78,-2.3 -4.54,-2.3 -1.75,0 -3.29,0.82 -4.63,2.45 -1.35,1.64 -2.02,4.01 -2.02,7.12zm20.72 -0.15c0,-4.48 1.25,-7.8 3.75,-9.96 2.08,-1.79 4.63,-2.69 7.63,-2.69 3.33,0 6.06,1.09 8.18,3.27 2.11,2.17 3.17,5.19 3.17,9.03 0,3.12 -0.47,5.57 -1.4,7.35 -0.93,1.79 -2.3,3.17 -4.09,4.16 -1.79,0.99 -3.74,1.48 -5.85,1.48 -3.4,0 -6.14,-1.08 -8.24,-3.26 -2.1,-2.17 -3.14,-5.31 -3.14,-9.39zm4.21 0.01c0,3.1 0.68,5.43 2.03,6.96 1.36,1.54 3.07,2.32 5.14,2.32 2.04,0 3.74,-0.77 5.1,-2.32 1.36,-1.55 2.03,-3.91 2.03,-7.08 0,-2.99 -0.69,-5.26 -2.05,-6.8 -1.36,-1.54 -3.06,-2.32 -5.09,-2.32 -2.07,0 -3.77,0.76 -5.14,2.3 -1.36,1.54 -2.03,3.85 -2.03,6.94zm36.76 12.13l0 -33.48 6.64 0 7.92 23.7c0.73,2.21 1.26,3.86 1.6,4.96 0.38,-1.22 0.98,-3.01 1.79,-5.37l8.06 -23.29 5.93 0 0 33.48 -4.26 0 0 -28.01 -9.77 28.01 -3.99 0 -9.66 -28.53 0 28.53 -4.25 0zm80.21 0l0 -3.08c-1.53,2.39 -3.79,3.59 -6.78,3.59 -1.93,0 -3.71,-0.53 -5.32,-1.6 -1.62,-1.06 -2.88,-2.55 -3.77,-4.45 -0.89,-1.91 -1.33,-4.1 -1.33,-6.58 0,-2.42 0.4,-4.61 1.21,-6.58 0.81,-1.97 2.02,-3.48 3.63,-4.52 1.6,-1.05 3.41,-1.57 5.4,-1.57 1.46,0 2.77,0.31 3.91,0.93 1.14,0.62 2.07,1.43 2.78,2.42l0 -12.04 4.12 0 0 33.48 -3.84 0zm-13 -12.1c0,3.1 0.66,5.42 1.97,6.95 1.31,1.53 2.86,2.3 4.65,2.3 1.8,0 3.33,-0.73 4.59,-2.2 1.25,-1.46 1.89,-3.7 1.89,-6.71 0,-3.3 -0.64,-5.74 -1.93,-7.29 -1.28,-1.55 -2.86,-2.32 -4.74,-2.32 -1.83,0 -3.36,0.74 -4.59,2.23 -1.23,1.49 -1.84,3.84 -1.84,7.04zm23.34 -16.7l0 -4.68 4.12 0 0 4.68 -4.12 0zm0 28.81l0 -24.27 4.12 0 0 24.27 -4.12 0zm26.24 -8.89l4.02 0.56c-0.44,2.77 -1.57,4.93 -3.38,6.49 -1.82,1.57 -4.05,2.35 -6.7,2.35 -3.31,0 -5.98,-1.08 -7.99,-3.25 -2.02,-2.17 -3.02,-5.27 -3.02,-9.31 0,-2.62 0.44,-4.9 1.3,-6.87 0.86,-1.96 2.18,-3.43 3.96,-4.4 1.77,-0.98 3.69,-1.47 5.78,-1.47 2.63,0 4.79,0.66 6.45,2 1.67,1.33 2.75,3.23 3.22,5.67l-3.98 0.61c-0.38,-1.63 -1.05,-2.85 -2.03,-3.68 -0.97,-0.82 -2.14,-1.23 -3.51,-1.23 -2.07,0 -3.76,0.74 -5.06,2.22 -1.29,1.49 -1.94,3.83 -1.94,7.04 0,3.26 0.62,5.62 1.87,7.09 1.25,1.47 2.88,2.21 4.89,2.21 1.62,0 2.97,-0.49 4.05,-1.48 1.08,-0.98 1.77,-2.5 2.06,-4.55zm5.99 -3.25c0,-4.48 1.25,-7.8 3.75,-9.96 2.08,-1.79 4.63,-2.69 7.63,-2.69 3.33,0 6.06,1.09 8.18,3.27 2.11,2.17 3.17,5.19 3.17,9.03 0,3.12 -0.47,5.57 -1.4,7.35 -0.93,1.79 -2.3,3.17 -4.09,4.16 -1.79,0.99 -3.74,1.48 -5.85,1.48 -3.4,0 -6.14,-1.08 -8.24,-3.26 -2.1,-2.17 -3.14,-5.31 -3.14,-9.39zm4.21 0.01c0,3.1 0.68,5.43 2.03,6.96 1.36,1.54 3.07,2.32 5.14,2.32 2.04,0 3.74,-0.77 5.1,-2.32 1.36,-1.55 2.03,-3.91 2.03,-7.08 0,-2.99 -0.69,-5.26 -2.05,-6.8 -1.36,-1.54 -3.06,-2.32 -5.09,-2.32 -2.07,0 -3.77,0.76 -5.14,2.3 -1.36,1.54 -2.03,3.85 -2.03,6.94zm-71.9 4.27l4.26 0.56c-0.66,2.47 -1.9,4.4 -3.71,5.76 -1.81,1.36 -4.12,2.05 -6.93,2.05 -3.54,0 -6.34,-1.09 -8.42,-3.28 -2.07,-2.17 -3.11,-5.24 -3.11,-9.17 0,-4.07 1.04,-7.23 3.14,-9.48 2.1,-2.25 4.82,-3.38 8.16,-3.38 3.23,0 5.88,1.1 7.93,3.3 2.05,2.21 3.08,5.31 3.08,9.31 0,0.24 -0.01,0.61 -0.02,1.09l-18.07 0c0.16,2.66 0.9,4.7 2.26,6.11 1.35,1.41 3.04,2.12 5.06,2.12 1.5,0 2.79,-0.4 3.85,-1.19 1.07,-0.79 1.91,-2.07 2.53,-3.81zm-13.47 -6.59l13.52 0c-0.18,-2.04 -0.7,-3.57 -1.55,-4.59 -1.3,-1.58 -3,-2.38 -5.08,-2.38 -1.89,0 -3.47,0.63 -4.75,1.89 -1.28,1.26 -1.99,2.95 -2.13,5.07zm3.46 -12.81l2.99 -6.41 5.43 0 -5 6.41 -3.41 0z"/>
  </g>
 </g>
</svg>
