<?xml version="1.0" encoding="UTF-8"?>
<!DOCTYPE svg PUBLIC "-//W3C//DTD SVG 1.1//EN" "http://www.w3.org/Graphics/SVG/1.1/DTD/svg11.dtd">
<!-- Creator: CorelDRAW 2019 (64-Bit) -->
<svg xmlns="http://www.w3.org/2000/svg" xml:space="preserve" width="105.894mm" height="137.599mm" version="1.1" style="shape-rendering:geometricPrecision; text-rendering:geometricPrecision; image-rendering:optimizeQuality; fill-rule:evenodd; clip-rule:evenodd"
viewBox="0 0 16965.03 22044.42"
 xmlns:xlink="http://www.w3.org/1999/xlink">
 <defs>
  <style type="text/css">
   <![CDATA[
    .fil0 {fill:black}
    .fil2 {fill:#7A7A7A}
    .fil1 {fill:#FDFDFD}
   ]]>
  </style>
 </defs>
 <g id="Capa_x0020_1">
  <metadata id="CorelCorpID_0Corel-Layer"/>
  <g id="_2870138196432">
   <path class="fil0" d="M6738.94 1061.96c467.2,-146.67 990.66,117.82 1106.12,539.76 149.78,547.42 -176.18,1026.57 -570.93,1145.23 -793.72,238.63 -1360.78,-506.83 -1105.16,-1154.76l35.84 -79.25c127.21,-270.29 -92.06,164.37 38.95,-78.6 121.39,-225.12 211.22,-283.22 495.19,-372.37zm-3472.38 3636.53c94.47,68.71 73.42,55.37 157.76,135.98 70.4,67.3 77.46,71.26 139.49,146.97 206.08,-0.98 387.69,23.07 525.88,26.53l3603.99 3.4c3334.47,-5.83 2954.24,163.16 3110.54,-990.26 431.44,-9.07 1045.6,-32.23 1463.39,10.29 538.8,54.82 501.85,326.81 531.22,869.4 123.12,2273.87 -31.67,5931.66 21.6,8445.53 405.58,25.95 853.64,63.19 1230.65,187.56 -76.6,-640.83 -19.56,-5891.25 -21.88,-7034.66 -2.21,-1100.26 141.88,-2412.77 -435.93,-3073.5 -874.64,-1000.2 -1604.98,-398.82 -2805.55,-642.61 -82.52,-1122.51 -384.34,-848.61 -1829.24,-888.29 -186.9,-589.93 -141.02,-833.27 -594.93,-1295.35 -804.47,-818.89 -2028.07,-764.11 -2717.05,-46.81 -443.04,461.26 -416.57,787.07 -576.8,1341.95 -392.61,13.43 -1022.69,-34.44 -1380.87,36.83 -480.37,95.61 -384.37,408.07 -477.12,871 -1139.38,25.75 -2220.44,-256.43 -2933.87,803.44 -354.11,526.06 -268.06,911.97 -269.92,1593.41l3.99 12886.07c-0.62,787.41 -74.06,953.86 395.89,1477.92 230.65,257.23 517.36,554.16 1182.22,620.45 1084.82,108.17 2425.85,42.18 3616.49,49.12 850.69,4.97 3017.3,-117.24 3700.77,18.74 -134.32,-455.62 -347.06,-745.77 -457.47,-1228.56 -2038.74,-32.57 -4086.2,14.39 -6127.11,-12.13 -490.54,-6.36 -968.83,-7.16 -1081.13,-394.35 -69.02,-238.01 -50.42,-1182.32 -54.1,-1492l-17.41 -9097.82c-4.52,-4583.68 -346.08,-4036.94 2054.01,-4005.59l42.49 677.31z"/>
   <path class="fil1" d="M12316.65 18306.34c495.97,-282.25 1511.07,-2309.96 2085.77,-2244.63 825.52,93.85 231.32,941.09 21.95,1234.39l-1459.67 1934.35c-95.6,144.59 -160.37,259.26 -321.01,358.98 -562.25,349.01 -841.78,-326.76 -1350.83,-978.26 -125.96,-161.2 -389.72,-461.94 -449.48,-616.59 -189.48,-490.35 392.06,-1152.38 999.49,-319.95 164.84,225.89 323.08,427.66 473.78,631.72zm141.05 -3534.4c-843.38,123.54 -1017.4,209.74 -1631.4,681.54 -9.84,7.56 -23.18,17.35 -33.05,24.77 -242.68,182.46 -364.54,294.54 -549.37,578.34l-151.11 252.81c-574.38,904.42 -575.82,2155.74 -11.34,3138.75 584.42,1017.72 1771.73,1731.1 3142.13,1559.9 1618.15,-202.17 2919.41,-1626.29 2724.23,-3537.84 -161.81,-1584.91 -1657.48,-2778.73 -3170.66,-2762.72 -173.7,1.84 -318.61,64.36 -319.42,64.47z"/>
   <path class="fil0" d="M12457.7 14771.94c0.82,-0.11 145.73,-62.63 319.42,-64.47 1513.18,-16 3008.85,1177.82 3170.66,2762.72 195.18,1911.55 -1106.08,3335.68 -2724.23,3537.84 -1370.4,171.2 -2557.71,-542.18 -3142.13,-1559.9 -564.48,-983 -563.04,-2234.33 11.34,-3138.75l151.11 -252.81c184.83,-283.79 306.69,-395.87 549.37,-578.34 9.87,-7.42 23.21,-17.21 33.05,-24.77 614,-471.8 788.02,-558 1631.4,-681.54zm-3782.8 3539.51c174.1,2092.48 2174.44,3961.23 4548.12,3710.28 680.31,-71.93 1030.04,-196.62 1587.13,-493.39 476.19,-253.66 867.19,-546.92 1167.07,-925.09 808.62,-1019.77 1048,-1791.72 975.56,-3130.85 -121.15,-2239.29 -2216.59,-3929.3 -4569.79,-3742.7 -1250.46,99.15 -1952.65,690.05 -2721.55,1461.35 -696.23,698.4 -1095.21,1814.21 -986.53,3120.4z"/>
   <path class="fil0" d="M12316.65 18306.34c-150.71,-204.06 -308.95,-405.82 -473.78,-631.72 -607.43,-832.43 -1188.97,-170.4 -999.49,319.95 59.76,154.65 323.52,455.39 449.48,616.59 509.05,651.5 788.58,1327.28 1350.83,978.26 160.64,-99.71 225.41,-214.39 321.01,-358.98l1459.67 -1934.35c209.38,-293.29 803.57,-1140.54 -21.95,-1234.39 -574.7,-65.33 -1589.79,1962.37 -2085.77,2244.63z"/>
   <path class="fil0" d="M6308.37 6891.3c-541.81,154.68 -435.77,805.73 -22.85,915.65 410.82,109.36 4290.55,91.05 4644.02,6.89 463.56,-110.35 444.67,-808.91 9.21,-935.46 -346.72,-100.75 -4327.01,-73.71 -4630.38,12.91z"/>
   <path class="fil0" d="M6315.1 9685.62c-493.84,142.15 -464.36,791.24 -67.48,919.88 472.18,153.05 4207.53,88.32 4616.97,28.37 582.55,-85.31 473.08,-793.48 113.14,-918.81 -310,-107.95 -4452.21,-90 -4662.63,-29.45z"/>
   <path class="fil0" d="M6263.69 12518.85c-508.12,181.02 -345.84,825.63 -29.48,924.16 160.42,49.95 1313.85,29.86 1572.14,30.36 621.03,1.19 2695.32,79.05 3150.75,-48.94 429.47,-120.7 426.97,-800.94 -27.49,-903.46 -347.62,-78.42 -4473.39,-70.7 -4665.92,-2.11z"/>
   <path class="fil0" d="M8541.08 16288.37c131.51,-160.53 443.73,-775.6 517.34,-983.63 -445.27,-2.71 -2638.85,-36.37 -2817.88,22.72 -310.53,102.49 -393.86,602.09 -129.94,846.35 193.11,178.74 728.15,111.33 1187.09,112.96 413.08,1.47 832.12,26.45 1243.39,1.6z"/>
   <path class="fil0" d="M3737.06 13015.34c-283.49,-235.65 -529.46,-1025.09 -1060.06,-519.67 -65.72,442.46 679.86,1181.41 923.02,1492.13 523.8,-64.64 503.5,-294.29 1070.48,-1011.89 90.21,-114.16 -14.29,22.06 104.25,-118.94 7.74,-9.2 18.92,-21.56 26.55,-30.98l240.74 -333.67c7.47,-9.71 18.26,-22.38 25.71,-32.09 7.42,-9.71 18.02,-22.56 25.33,-32.31 7.26,-9.71 17.45,-22.86 24.5,-32.67 136.77,-190.3 339.05,-432.79 306.13,-748.91 -379.08,-272.93 -488.63,-143 -926.26,418.16l-760.38 950.83z"/>
   <path class="fil0" d="M3737.06 15824.55c-205.29,-168.07 -320.93,-425.67 -498.58,-577.82 -273.3,-234.05 -655.38,-26.31 -553.31,320.53 40.04,136.02 355.01,538.84 445.88,654.93 555.09,709.06 586.31,878.95 1350.43,-167.35 378.67,-518.51 976.5,-1120.03 946.46,-1592.82 -697.95,-540.49 -942.49,729.49 -1690.87,1362.54z"/>
   <path class="fil0" d="M3129.7 7747.52c11.92,11.23 30.41,11.18 35.26,34.22 4.74,22.45 26.23,26.19 32.39,35.29l373.08 486.73 295.98 0.77c222.37,-60.81 823.55,-980.52 1000.69,-1183.84l124.29 -155.69c6.92,-10.29 15.48,-24.61 22.24,-35.13 6.82,-10.65 14.96,-25.22 21.66,-36.01 6.71,-10.8 14.71,-25.36 21.36,-36.19 194.04,-315.79 450.46,-537.67 344.09,-897.33 -155.66,-77.22 -204.73,-96.86 -444.96,-91.03 -170.85,204.76 -437.86,510.09 -599.63,740.82 -168.78,240.74 -394.75,599.72 -619.09,790.84 -191.11,-194.81 -563.37,-850.98 -886.3,-663.21 -485.29,282.16 199.81,938.68 278.94,1009.78z"/>
   <path class="fil0" d="M3737.06 10207.79c-159.81,-121.25 -270.03,-345.62 -457.27,-540.94 -215.64,-224.93 -379.89,-214.17 -588.8,21.84 -81.82,356.41 257.76,671.9 373.4,827.94 365.19,492.77 647.43,880.9 1005.16,434.32 7.47,-9.31 16.33,-23.74 23.47,-33.12l255.1 -300.33c7.72,-9.79 17.54,-23.21 25.02,-33.23 52.42,-70.27 65.56,-98.74 115.13,-169.37 292.33,-416.53 589.55,-690.8 857.66,-1178.03 112.26,-203.99 115.13,-162.77 73.98,-410.87 -518.88,-354.67 -617.01,110.98 -938.8,458.02 -179.24,193.32 -197.68,248.69 -342.09,444.22 -151.64,205.32 -212.04,365.24 -401.96,479.53z"/>
   <path class="fil1" d="M6738.94 1061.96c-283.97,89.16 -373.8,147.25 -495.19,372.37 -131,242.97 88.26,-191.69 -38.95,78.6l-35.84 79.25c-255.61,647.93 311.44,1393.39 1105.16,1154.76 394.75,-118.67 720.71,-597.82 570.93,-1145.23 -115.46,-421.94 -638.93,-686.43 -1106.12,-539.76z"/>
   <path class="fil2" d="M3866.41 8304.53l-295.98 -0.77 -373.08 -486.73c-6.17,-9.1 -27.65,-12.85 -32.39,-35.29 -4.85,-23.04 -23.34,-22.99 -35.26,-34.22 111.3,247.76 415.04,807.91 736.72,557.01z"/>
   <path class="fil2" d="M3563.81 4981.45c-62.03,-75.71 -69.1,-79.67 -139.49,-146.97 -84.33,-80.62 -63.28,-67.27 -157.76,-135.98 122,217.9 109.71,193.05 297.25,282.96z"/>
  </g>
 </g>
</svg>
