<?xml version="1.0" encoding="UTF-8"?>
<!DOCTYPE svg PUBLIC "-//W3C//DTD SVG 1.1//EN" "http://www.w3.org/Graphics/SVG/1.1/DTD/svg11.dtd">
<!-- Creator: CorelDRAW 2019 (64-Bit) -->
<svg xmlns="http://www.w3.org/2000/svg" xml:space="preserve" width="106.948mm" height="82.6576mm" version="1.1" style="shape-rendering:geometricPrecision; text-rendering:geometricPrecision; image-rendering:optimizeQuality; fill-rule:evenodd; clip-rule:evenodd"
viewBox="0 0 3172.92 2452.28"
 xmlns:xlink="http://www.w3.org/1999/xlink">
 <defs>
  <style type="text/css">
   <![CDATA[
    .fil0 {fill:#282828}
   ]]>
  </style>
 </defs>
 <g id="Capa_x0020_1">
  <metadata id="CorelCorpID_0Corel-Layer"/>
  <g id="_2870212567120">
   <path class="fil0" d="M2120.43 2056.53c89.51,42.97 168.45,69.32 267.06,2.37 140.92,-95.69 392.89,-380.6 524.57,-511.62 108.69,-108.13 204.86,-268.04 179.09,-505.9 -12.77,-117.88 -16.66,-208.02 6.31,-324.37 19.71,-99.86 58.4,-184.3 75.46,-270.89 -48.77,-22.11 -216.3,-148.37 -264.69,-185.33 -80.82,-61.74 -180.46,-134.76 -264.49,-184.78 -205.11,159.69 -309.51,423.14 -554.21,442.05 -167.84,12.97 -245.52,-88.69 -420.76,15.77 -74.21,44.24 -231.53,178.37 -259.51,236.69 69.08,72.23 223.8,137.88 261.4,246.37 104.28,300.86 49.07,251.67 -54.31,354.35 -41.86,41.57 -547.41,442.95 -554.48,462.3 2.81,90.9 57.27,125.6 132.81,151.17 107.72,36.46 136.36,-5.39 224.51,-24.51 39.2,77.23 39.14,93.74 131.59,117.43 90.47,23.18 140.17,-9.8 213.79,-26.57 116.89,86.95 242.63,97.14 355.85,5.47z"/>
   <path class="fil0" d="M268.89 1027.55c220.12,91.68 320.44,94.92 543.27,-1.82 92.66,44.46 222.44,172.31 317.51,238.87 225.05,157.55 175.17,153.39 339.41,1.49 63.02,-58.28 98.29,-57.38 58.31,-190.25 -21.14,-70.27 -231.57,-200.34 -294.7,-248.96 -245.24,-188.88 -130.6,-63.38 -135.06,-301.8 -5.3,-283.25 -208.21,-514.48 -515.39,-524.49 -156.36,-5.09 -222.73,23.16 -347.86,63.36 22.45,32.87 90.89,77.58 126.25,106.77 44.45,36.7 83.84,70.8 125.55,105.04 120.82,99.22 229.48,149.73 181.52,251.29 -16.6,35.16 -362.96,436.59 -398.8,500.5z"/>
   <path class="fil0" d="M2466.61 2199.86c33.79,36.13 72.7,61.4 112.87,95.65 44.04,37.56 75.63,62 114.99,94.43 40.88,33.67 72.34,73 146.02,59.69 62.31,-11.26 79.3,-48.3 111.08,-88.47 49.88,-63.04 161.82,-182.54 55.73,-273.46l-227.51 -179.87 -240.68 218.66c-28.81,30 -54.77,41.1 -72.5,73.37z"/>
   <path class="fil0" d="M1.98 373.4c-11.64,248.5 26.16,444.35 161.53,578.58 26.88,-22.2 208.52,-240 221.12,-269.72l-382.66 -308.86z"/>
  </g>
 </g>
</svg>
