<?xml version="1.0" encoding="UTF-8"?>
<!DOCTYPE svg PUBLIC "-//W3C//DTD SVG 1.1//EN" "http://www.w3.org/Graphics/SVG/1.1/DTD/svg11.dtd">
<!-- Creator: CorelDRAW 2019 (64-Bit) -->
<svg xmlns="http://www.w3.org/2000/svg" xml:space="preserve" width="41.7629mm" height="44.9142mm" version="1.1" style="shape-rendering:geometricPrecision; text-rendering:geometricPrecision; image-rendering:optimizeQuality; fill-rule:evenodd; clip-rule:evenodd"
viewBox="0 0 207.26 222.9"
 xmlns:xlink="http://www.w3.org/1999/xlink">
 <defs>
  <style type="text/css">
   <![CDATA[
    .fil0 {fill:black}
   ]]>
  </style>
 </defs>
 <g id="Capa_x0020_1">
  <metadata id="CorelCorpID_0Corel-Layer"/>
  <path class="fil0" d="M175.84 157.77c-8.44,19.12 -30.3,28.25 -52.97,34.99 -8.18,2.43 -16.39,-4.72 -34.8,1.73 -11.08,3.88 -14.31,19.97 -3.62,26.42 8.71,5.26 29.64,-0.99 33.86,-6.57 11.1,-14.72 -13.66,-2.59 25.39,-18.24 11.02,-4.42 20.66,-8.38 28.51,-15.25 3.06,-2.68 6.55,-6.8 9.5,-11.69 10.74,-17.78 24.98,4.08 24.86,-39.4 -0.11,-37.84 5.1,-45.49 -11.54,-54.75 -5.96,-3.32 -2.43,2.45 -7.21,-13.49 -4.15,-13.85 -8.21,-18.62 -15.22,-28.66 -9.32,-13.34 -30.46,-27.85 -55.6,-31.76 -28.21,-4.39 -48.76,4.74 -66.92,17.21 -27.16,18.64 -29.3,47.46 -33.82,53.79 -5.88,8.23 -15.56,-1.56 -15.5,27.81 0.05,24.99 -7.68,71.16 24.98,60.56 12.35,-4.01 10.92,-16.91 10.89,-32.47 -0.02,-9.13 1.11,-35.55 -1.04,-42.2 -3.14,-9.72 -6.77,-5.47 -6.69,-13.47 0.18,-16.75 22.88,-47.9 51.5,-56.9 34.49,-10.84 72.76,5.72 89.57,35.72 13.96,24.91 6.94,24.94 3.86,29.71 -5.78,8.93 -3.53,28.38 -3.54,40.13 -0,17.38 -2.57,23.96 5.55,36.77z"/>
 </g>
</svg>
